<?xml version="1.0" encoding="UTF-8" standalone="no"?>
<svg
   xmlns:dc="http://purl.org/dc/elements/1.1/"
   xmlns:cc="http://creativecommons.org/ns#"
   xmlns:rdf="http://www.w3.org/1999/02/22-rdf-syntax-ns#"
   xmlns:svg="http://www.w3.org/2000/svg"
   xmlns="http://www.w3.org/2000/svg"
   version="1.1"
   id="svg21424"
   viewBox="0 0 1310.6346 985.29586"
   height="278.07239mm"
   width="369.8902mm">
  <defs
     id="defs21426" />
  <metadata
     id="metadata21429">
    <rdf:RDF>
      <cc:Work
         rdf:about="">
        <dc:format>image/svg+xml</dc:format>
        <dc:type
           rdf:resource="http://purl.org/dc/dcmitype/StillImage" />
        <dc:title></dc:title>
      </cc:Work>
    </rdf:RDF>
  </metadata>
  <g
     transform="translate(32.401352,414.36221)"
     id="layer1">
    <path
       id="path21983"
       d="m 266.05887,560.51795 c -6.76674,-14.14595 -7.02608,-32.74985 -0.64837,-46.51314 5.26228,-11.35616 8.89131,-38.59033 5.14227,-38.59033 -1.25159,0 -5.08495,3.49177 -8.51858,7.7595 -7.8401,9.74456 -16.62329,18.29118 -18.79749,18.29118 -2.58259,0 -1.95866,-5.35068 0.96192,-8.24938 2.04145,-2.02615 1.79842,-2.60507 -1.09364,-2.60507 -5.56258,0 -4.65177,-2.60572 5.86871,-16.78968 5.27287,-7.10906 10.22476,-14.78749 11.00415,-17.06322 3.45964,-10.10167 11.12253,-16.02399 23.7253,-18.33629 21.58947,-3.96111 37.6532,-12.63097 58.48556,-31.56558 4.21051,-3.82696 14.5454,-13.16632 22.96642,-20.75415 8.42103,-7.58782 20.44141,-19.7882 26.71195,-27.11194 17.56623,-20.51662 43.86845,-43.55619 60.7565,-53.21995 14.53914,-8.31965 26.53672,-12.85555 61.2665,-23.16281 31.44213,-9.33152 33.90282,-10.17615 33.90282,-11.63699 0,-1.83722 -11.99954,-10.47319 -14.55496,-10.47508 -1.0173,-7.4e-4 -7.49088,-4.39679 -14.38573,-9.76901 -6.89485,-5.37219 -13.38617,-9.76763 -14.42513,-9.76763 -1.03898,0 -3.67053,-1.95381 -5.84795,-4.34178 -2.17741,-2.38798 -4.8191,-4.34178 -5.87041,-4.34178 -2.08721,0 -11.0537,-8.00672 -35.53578,-31.7321 l -15.94321,-15.45039 -45.43318,-1.19289 -45.43321,-1.19286 1.14657,12.54968 c 1.20934,13.23709 -1.11847,21.08959 -4.64436,15.66696 -1.03677,-1.59447 -2.75925,-2.80277 -3.82774,-2.68513 -1.06851,0.11767 -2.24025,-4.68341 -2.60387,-10.66903 -0.36361,-5.9856 -1.21601,-10.88293 -1.89422,-10.88293 -1.68766,0 -22.20655,15.04314 -28.83411,21.13934 -2.96247,2.72495 -5.84047,4.50367 -6.39558,3.95272 -0.55511,-0.55095 0.0945,-7.15474 1.44367,-14.67507 1.34911,-7.52033 4.38508,-26.86148 6.74653,-42.98034 8.20181,-55.983581 8.65915,-63.338731 4.2651,-68.593541 -5.26423,-6.2955 -10.85607,-28.88413 -11.20912,-45.28014 -0.79877,-37.0936704 27.33573,-108.39071 64.24448,-162.805069 8.82198,-13.00621 17.02423,-25.18892 18.22723,-27.07271 3.8156,-5.97485 38.53029,-46.39307 49.97927,-58.19072 6.05452,-6.2389 10.45828,-11.88927 9.78615,-12.55637 -0.67213,-0.66709 -6.02796,-0.11831 -11.90188,1.21961 -5.87389,1.3379 -17.56973,2.80242 -25.99075,3.25453 -30.4273,1.63358 -61.34282,5.90908 -66.67843,9.22142 -7.65425,4.75173 -18.60136,14.66556 -52.78996,47.80719 -16.40812,15.90565 -31.95991,30.39797 -34.55951,32.20517 -3.3506,2.32926 -4.31204,4.58208 -3.30261,7.73864 1.24102,3.88081 0.71968,4.27741 -4.05815,3.08724 -5.61905,-1.39972 -10.21848,3.57607 -5.80694,6.2821 3.14098,1.92669 0.0591,5.64175 -4.15272,5.00583 -1.99869,-0.30177 -5.8959,0.68787 -8.66047,2.19922 -3.73368,2.04114 -4.65411,3.912361 -3.57869,7.275308 1.21757,3.807501 0.71301,4.336681 -3.17317,3.32804 -3.38202,-0.8778 -5.80806,0.455301 -9.04864,4.972161 -2.73673,3.8146 -9.21155,7.96804 -16.95404,10.87562 -11.34169,4.25917 -14.25289,4.50069 -30.78203,2.55368 -14.03832,-1.65359 -21.87042,-4.00987 -33.90282,-10.19962 -18.36047,-9.445045 -47.290473,-34.628869 -43.781133,-38.111909 1.57766,-1.56584 5.57548,0.7939 13.018153,7.68398 29.73936,27.531369 57.49667,38.635669 84.073,33.633329 6.50013,-1.22349 12.64866,-3.04853 13.6634,-4.05567 2.39593,-2.37798 -11.59297,-8.958768 -19.0438,-8.958768 -3.16525,0 -13.35139,-2.858063 -22.63586,-6.351264 -9.28447,-3.493197 -23.11752,-8.041647 -30.74015,-10.107667 -15.49315,-4.19921 -43.291163,-20.76486 -37.082483,-22.09855 2.05709,-0.44188 7.96274,1.62396 13.123673,4.59074 5.16093,2.96678 16.76555,7.56742 25.78808,10.22363 9.02252,2.65624 21.04717,7.13127 26.72146,9.94452 12.15989,6.0288 12.64955,6.10075 12.64955,1.8587 0,-4.10014 4.19999,-4.07029 9.71399,0.069 4.76118,3.57419 12.1588,4.27055 12.1588,1.14453 0,-1.12352 -1.00033,-2.65638 -2.22295,-3.40634 -3.65083,-2.23945 0.0669,-5.68812 4.59431,-4.26191 2.34253,0.73793 4.19048,0.29819 4.19048,-0.99714 0,-1.27446 -0.98428,-2.31718 -2.18728,-2.31718 -1.20301,0 -2.18728,-1.54296 -2.18728,-3.42884 0,-2.63767 1.43363,-3.11629 6.21331,-2.07437 4.31338,0.94028 7.09871,0.29561 9.10882,-2.10828 2.48162,-2.96778 2.21879,-3.63835 -1.83876,-4.69149 -2.82568,-0.73339 -4.73426,-2.94657 -4.73426,-5.48983 0,-3.60088 1.01212,-4.04044 6.53249,-2.83705 5.70306,1.24322 6.8733,0.64495 9.21675,-4.712 1.47635,-3.37483 6.31509,-10.04365 10.75277,-14.81961 15.23053,-16.39152 19.43091,-21.25969 19.4728,-22.56861 0.0232,-0.72115 3.55159,-5.21878 7.84113,-9.99473 4.28955,-4.77596 10.06036,-12.10272 12.82405,-16.28168 2.76367,-4.17896 13.01503,-15.76094 22.78077,-25.73772 9.76574,-9.97678 17.75589,-18.9086 17.75589,-19.84847 0,-0.93989 1.72248,-2.39286 3.82774,-3.22887 9.506,-3.77485 72.23507,-19.32728 90.22524,-22.36957 7.81952,-1.32233 20.90437,-3.54966 29.07742,-4.94963 8.17307,-1.39994 22.44507,-2.77244 31.71554,-3.04999 27.58229,-0.82576 25.89183,-0.36579 21.02218,-5.72021 -3.25458,-3.57858 -4.07976,-7.4724 -3.7694,-17.78704 0.46142,-15.33531 -2.26047,-22.76653 -6.71832,-18.34206 -8.78785,8.72198 -10.31011,21.88324 -3.52178,30.44855 6.01204,7.58581 5.49287,8.77665 -2.12245,4.86814 -8.06029,-4.13692 -11.00122,-9.38626 -11.00122,-19.63635 0,-9.83005 4.94585,-18.4731 13.29113,-23.22677 6.14829,-3.50219 6.30949,-4.0201 5.04636,-16.21364 -1.12481,-10.85822 -0.64258,-13.42545 3.49564,-18.60921 2.64026,-3.30733 7.91246,-7.59234 11.716,-9.52226 3.80353,-1.92992 10.38724,-7.21009 14.63043,-11.73375 4.24319,-4.52363 10.39491,-8.89242 13.67049,-9.70837 8.36002,-2.08251 17.14964,0.58158 18.47154,5.59866 1.79528,6.81373 7.87808,4.87899 13.07709,-4.15938 5.26091,-9.14598 15.80742,-15.28728 29.3487,-17.08994 7.07585,-0.94195 10.77478,0.31395 23.63066,8.02339 17.77468,10.65916 18.68054,11.59466 21.63613,22.3441 1.22968,4.47238 5.19841,10.6058 8.81936,13.6298 3.62096,3.02403 8.26442,9.86648 10.3188,15.20548 3.5265,9.16485 3.52445,10.25502 -0.0368,19.5102 -3.48993,9.06983 -3.51216,10.5599 -0.29716,19.92473 4.56292,13.2911 4.3868,20.63752 -0.64702,26.98905 -3.42502,4.32159 -6.07497,5.19687 -15.67417,5.17727 -7.97725,-0.0152 -11.87069,-0.97045 -12.58116,-3.08316 -0.73357,-2.18142 0.0892,-2.63371 2.86684,-1.57583 4.94362,1.88283 12.01503,-4.21694 12.00398,-10.35461 -0.0131,-6.98195 -7.7775,-18.05286 -15.40931,-21.96984 -8.55746,-4.39208 -10.20258,-2.90048 -6.87481,6.23332 5.36255,14.71877 1.90737,40.04941 -7.37441,54.06357 -6.10192,9.21297 -5.1073,9.97545 5.01897,3.84751 8.95461,-5.41891 33.9652,-11.56262 66.20604,-16.26318 13.83454,-2.017 36.8423,-5.54367 51.12836,-7.83706 14.28599,-2.29338 30.81958,-4.16978 36.74129,-4.16978 11.99296,0 16.68178,3.5136 24.99316,18.72874 6.23396,11.41215 17.83037,30.42891 24.9839,40.97073 3.24092,4.77596 10.09062,16.31289 15.2216,25.63762 6.61412,12.02011 10.26289,16.59839 12.53794,15.7319 5.36739,-2.04422 7.76336,1.07615 3.99752,5.20618 -4.50553,4.94125 -2.17295,11.55719 3.45019,9.78583 4.21679,-1.32832 5.78634,2.05683 2.02378,4.36479 -2.92829,1.79622 -0.27916,7.65671 3.46108,7.65671 2.08763,0 2.71359,1.58299 1.9315,4.8845 -0.63639,2.68648 -0.14501,6.34985 1.09198,8.14084 1.96396,2.84352 2.53508,2.77472 4.50503,-0.54272 1.24075,-2.08949 3.1913,-3.79906 4.33453,-3.79906 3.22538,0 2.455,4.67254 -1.48232,8.99063 -3.41441,3.74461 -2.49212,3.85665 22.4196,2.72327 28.6338,-1.30273 56.65332,-5.92444 61.94004,-10.21677 6.14828,-4.99187 15.08566,-8.60986 18.27139,-7.39655 1.71872,0.65459 3.65094,3.18652 4.29382,5.62647 2.21217,8.39594 -22.21107,23.39145 -60.71201,37.27627 -14.21545,5.12662 -43.58747,7.56099 -54.64977,4.52945 -6.38729,-1.75041 -9.29807,-1.6707 -11.74944,0.32181 -2.76628,2.24844 -3.05307,1.85757 -1.89804,-2.58681 1.49122,-5.73788 -1.54144,-13.21709 -5.35922,-13.21709 -1.32882,0 -3.67439,1.70803 -5.21242,3.79565 -4.14666,5.62842 -5.64904,2.35439 -2.59934,-5.66464 3.37541,-8.87551 -0.9605,-12.81422 -8.62179,-7.83198 -5.51389,3.58577 -8.88121,0.72683 -3.93888,-3.34421 4.40387,-3.6275 4.11226,-10.14179 -0.5709,-12.75366 -2.88718,-1.61023 -5.03489,-1.0123 -8.74049,2.4334 -5.69152,5.29232 -9.42221,3.53501 -4.52019,-2.12921 6.26028,-7.23367 6.07644,-8.78301 -2.07321,-17.47132 -19.71943,-21.02288 -43.25639,-53.21846 -45.55701,-62.31622 -1.56743,-6.19828 -5.07652,-9.18115 -7.15927,-6.08566 -0.76776,1.14107 -8.77799,5.08125 -17.80051,8.75598 -18.81289,7.6622 -49.8042,15.59466 -96.24026,24.63339 -5.41352,1.05375 -16.48661,4.53178 -24.60689,7.72898 -12.67278,4.98968 -14.76413,6.57417 -14.76413,11.18603 0,6.68224 -3.55747,19.79331 -9.35286,34.46985 -4.19967,10.63547 -4.24284,11.62348 -0.82091,18.78065 4.58434,9.58838 4.53108,12.03982 -0.51143,23.54282 -4.02676,9.185883 -11.16136,17.033735 -22.06385,24.269575 -6.44403,4.27683 -26.53516,4.84065 -32.85716,0.92208 -3.75641,-2.32834 -5.23521,-1.70781 -11.64072,4.88451 -19.7433,20.31916 -41.62461,36.26899 -64.72455,47.17927 -6.72742,3.17743 -12.62585,6.04693 -13.10762,6.37669 -0.48177,0.32976 1.17903,7.69791 3.69066,16.3736496 2.51163,8.67577 5.22637,21.9592504 6.03275,29.5188504 1.43331,13.43694 1.5923,13.71334 7.09829,12.34177 3.09769,-0.77164 9.57442,-3.29339 14.39274,-5.60391 4.81831,-2.31052 10.10098,-4.20093 11.73927,-4.20093 1.6383,0 5.70311,-1.3983 9.03294,-3.10731 3.3298,-1.70901 20.25969,-6.6988 37.62193,-11.08843 17.36223,-4.3896204 31.79138,-8.1792404 32.06474,-8.4213804 0.27337,-0.24212 1.44973,-7.11691 2.61411,-15.27731 1.16437,-8.1603996 3.05832,-15.7712996 4.20878,-16.9131396 1.15044,-1.14182 8.7564,-3.46261 16.90211,-5.1573 8.14573,-1.6947 16.11692,-4.15745 17.71378,-5.47281 3.3454,-2.75562 3.89588,-11.84933 0.83108,-13.72927 -2.18844,-1.34242 -1.42538,-21.3118 1.05948,-27.72581 1.90389,-4.91448 16.4716,-8.74089 26.30626,-6.90972 11.07063,2.0613 14.50304,6.22672 12.75438,15.47812 -0.98767,5.22518 -0.54461,8.17214 1.40871,9.37032 2.28394,1.40096 2.12409,2.84673 -0.80527,7.28401 -2.01013,3.04487 -3.65478,7.95288 -3.65478,10.9067 0,4.77212 1.15777,5.51957 10.38957,6.70757 21.90885,2.81936 20.8949,2.01159 19.22062,15.3117 -0.8197,6.51141 -0.68131,11.8689696 0.30749,11.9056996 26.86765,0.99792 56.67867,5.51734 61.57183,9.33443997 3.72379,2.90491003 13.49986,21.98386043 13.49986,26.34631043 0,2.61304 2.76216,3.3285 12.85026,3.3285 7.06764,0 15.92612,0.61056 19.68551,1.3568 5.41211,1.07431 6.83524,0.62233 6.83524,-2.17089 0,-1.94023 -1.45373,-3.52769 -3.2305,-3.52769 -1.77677,0 -4.84659,-2.44803 -6.82184,-5.44004 -4.22591,-6.40121 -1.8991,-14.2400604 7.22767,-24.3495404 2.99414,-3.31656 7.9464,-11.4030596 11.00503,-17.9699996 8.12189,-17.43789 10.53133,-19.53801 22.41576,-19.53801 5.62791,0 15.93242,-1.13611 22.89888,-2.5247 l 12.66629,-2.52468 -1.15769,-12.67155 c -1.16813,-12.78596 -0.24504,-14.82742 4.55186,-10.06646 2.04146,2.02616 2.62474,1.14543 2.62474,-3.96337 0,-12.39596 14.12861,-20.006403 28.95604,-15.59728 7.73912,2.30131 8.22769,2.96491 8.22769,11.17513 0,8.54673 -2.90039,20.32268 -6.93988,28.1767 -4.16314,8.09444 -6.01624,14.50888 -4.19159,14.50888 1.88733,0 6.48351,-8.51195 11.15359,-20.65606 2.41657,-6.28401 2.58818,-6.34998 5.67251,-2.18053 3.26764,4.41726 2.3793,14.91857 -1.6867,19.93908 -1.36679,1.68767 2.35767,11.19079 11.18898,28.5491296 7.28075,14.31068 13.23771,26.9613904 13.23771,28.1127004 0,1.15131 -2.03998,4.66729 -4.53331,7.81327 l -4.5333,5.72 6.17376,0.36364 c 3.39558,0.19994 9.08767,0.44421 12.6491,0.54272 7.36094,0.20363 12.03108,6.91542 12.0843,17.36728 0.0175,3.48356 1.4847,17.16016 3.25994,30.39245 1.77524,13.23229 5.75817,43.108275 8.85091,66.391065 3.09277,23.28279 6.58397,44.06409 7.75824,46.18067 1.60421,2.8916 1.25215,4.18458 -1.4162,5.20084 -1.95315,0.74388 -4.19006,0.33703 -4.9709,-0.90415 -1.63339,-2.5963 -27.98583,-13.57223 -32.58599,-13.57223 -2.15801,0 -2.95834,2.42032 -2.69188,8.14084 0.59748,12.827 0.28736,13.56806 -5.67776,13.56806 -5.52767,0 -5.61978,-0.25395 -4.92138,-13.56806 l 0.71172,-13.56807 -28.97871,-0.39037 c -23.23692,-0.31304 -29.62931,0.25537 -32.26236,2.86868 -5.45518,5.41429 -4.01903,11.60389 3.27819,14.12865 10.46503,3.62081 8.5357,8.67453 -2.7341,7.16177 -20.17469,-2.70808 -19.52511,-2.24092 -18.82514,-13.53826 0.48505,-7.82883 -0.11921,-10.23047 -2.57395,-10.23047 -2.27978,0 -3.40185,3.01231 -3.87859,10.41224 -0.56954,8.8406 -1.50517,10.72711 -6.19857,12.49816 -3.04028,1.14723 -6.42944,1.5328 -7.5315,0.85681 -3.7848,-2.32161 -1.98793,5.76894 6.91602,31.13983 16.38431,46.68544 32.46932,113.11003 32.58741,134.57284 0.0599,10.88336 3.78968,20.58316 13.05311,33.9462 9.58457,13.82631 9.04274,17.38659 -2.37035,15.57525 -10.61856,-1.68527 -38.94233,-14.26631 -42.89995,-19.05562 -1.50706,-1.82374 -3.0978,-6.14329 -3.53499,-9.59898 -1.35461,-10.70685 -5.50926,-23.58704 -9.05077,-28.05906 -2.43822,-3.07884 -3.29609,-3.36372 -3.06649,-1.01836 1.12432,11.48557 -0.52279,30.39246 -2.64773,30.39246 -2.81957,0 -1.80146,-39.92618 1.09117,-42.79082 3.28083,-3.24909 11.55688,9.64988 16.45999,25.65433 2.70455,8.82808 5.64797,17.51639 6.54093,19.30738 1.91072,3.83229 30.25717,17.85444 34.20864,16.922 1.73095,-0.40845 -0.25385,-5.04517 -5.48127,-12.80484 -8.16409,-12.11889 -9.03241,-15.42789 -12.18907,-46.44951 -0.6075,-5.96995 -1.71295,-12.3198 -2.45658,-14.11079 -0.74363,-1.79098 -2.11573,-7.65239 -3.04909,-13.02534 -1.55662,-8.96065 -8.31096,-33.46157 -11.37083,-41.24691 -0.70391,-1.79098 -2.45329,-8.62928 -3.88749,-15.19623 -4.07969,-18.68013 -22.17096,-74.083 -32.60861,-99.86093 -2.17555,-5.37295 -5.71103,-15.14196 -7.85661,-21.7089 -2.14559,-6.56694 -6.09,-16.8244 -8.76535,-22.79434 -2.67535,-5.96995 -8.08208,-20.13501 -12.01494,-31.477905 -3.93286,-11.3429 -7.84448,-21.60035 -8.69248,-22.79434 -1.44853,-2.03955 -7.07946,-18.60466 -14.75886,-43.4178 -5.38027,-17.3844204 -5.72348,-17.6986804 -23.99423,-21.9708204 -30.83374,-7.20969 -100.01281,-3.28047003 -150.73878,8.5616304 -10.92425,2.55029 -32.55941,8.59461 -48.34959,13.50766 -3.82921,1.19145 -3.52522,24.13717 0.6333,47.80521 3.25393,18.51967 3.73819,19.52388 14.37197,29.804185 10.22754,9.88754 11.57285,10.53707 19.05223,9.19854 20.36505,-3.6446 49.65921,-14.710985 83.50872,-31.546885 4.21051,-2.09422 13.79475,-6.84543 21.29832,-10.55826 18.12989,-8.97083 28.9669,-10.6831 33.83357,-5.34577 2.01934,2.21463 6.09931,13.29269 9.06662,24.61791 2.96733,11.325205 8.52332,28.401405 12.34666,37.947115 6.28576,15.69351 10.76644,22.90223 34.4153,55.369 42.7908,58.74615 52.97635,77.08265 56.29165,101.33901 1.50108,10.98261 1.32717,11.47324 -7.39633,20.86622 -4.91346,5.29052 -8.93357,10.98303 -8.93357,12.64999 0,1.66696 2.50741,7.70569 5.57201,13.41938 4.87083,9.08129 5.58169,13.09804 5.64904,31.92022 0.0424,11.84242 -0.55456,22.54598 -1.32652,23.78568 -3.83303,6.15552 -5.52027,0.37837 -5.52336,-18.91214 -0.004,-21.65829 -1.29102,-26.11876 -11.66121,-40.39833 -5.16727,-7.11526 -3.67625,-11.34324 8.41837,-23.87132 5.39445,-5.58776 9.80807,-10.40627 9.80807,-10.7078 0,-5.15856 -10.49732,-35.51424 -14.79839,-42.79332 -3.17474,-5.37296 -7.78774,-13.21612 -10.25109,-17.42925 -18.61576,-31.83919 -35.73657,-53.91794 -39.8525,-51.39322 -1.192,0.73118 -1.84867,7.6597 -1.46167,15.42198 0.74975,15.03776 -0.92842,18.08273 -7.91924,14.3694 -3.89327,-2.06801 -4.22849,-3.76903 -3.01453,-15.29663 0.75509,-7.17025 0.49297,-12.96939 -0.58619,-12.96883 -1.07363,5.9e-4 -9.27441,6.78223 -18.22395,15.07034 -15.26184,14.13393 -21.96539,17.40617 -18.70685,9.13154 0.77528,-1.96871 2.7054,-13.34847 4.28914,-25.28837 1.58374,-11.93989 4.64099,-32.99094 6.79391,-46.78011 3.81229,-24.41756 3.80448,-25.56857 -0.29973,-44.147625 -2.31772,-10.49202 -4.89493,-20.16983 -5.72708,-21.5062 -2.05337,-3.29752 -22.54568,1.94932 -31.3213,8.01948 -3.60901,2.49637 -6.80563,4.62133 -7.10363,4.7221 -1.05667,0.35739 5.83704,47.807985 8.96417,61.701785 1.74678,7.76093 4.341,22.41444 5.76492,32.56335 1.42392,10.14891 3.51647,22.65449 4.65014,27.79021 1.13366,5.1357 1.48409,10.26443 0.77873,11.39717 -1.97168,3.16633 -5.39886,2.44199 -5.39886,-1.14106 0,-1.76033 -3.19889,-4.82841 -7.10865,-6.81796 -3.90976,-1.98956 -11.2231,-6.41068 -16.25188,-9.82475 -10.6265,-7.21441 -12.3752,-7.60711 -10.72433,-2.40832 0.66351,2.08948 0.31127,6.72975 -0.78274,10.31172 -1.90825,6.24787 -2.05115,6.31202 -3.5147,1.57759 -1.43715,-4.64903 -1.70439,-4.71194 -4.61078,-1.08545 -2.73031,3.40685 -3.01394,2.3514 -2.46565,-9.1757 l 0.61952,-13.02534 -8.43316,-0.68743 c -4.63826,-0.37808 -8.03493,0.11028 -7.54817,1.08544 17.00636,34.06774 27.571,60.47047 31.32855,78.29508 2.71614,12.88447 2.62403,15.14424 -1.00324,24.61896 -2.19664,5.73774 -6.91235,13.94636 -10.47934,18.24131 -6.78271,8.16695 -10.22835,10.39928 -38.8611,25.177 -9.62402,4.96709 -17.99036,9.6416 -18.59186,10.38782 -0.60151,0.74624 -15.36564,8.59987 -32.80918,17.45252 -17.44355,8.85265 -36.14478,18.48778 -41.5583,21.4114 -5.41351,2.92363 -18.20909,9.71632 -28.43462,15.09487 -10.22553,5.37856 -26.07066,14.06032 -35.21138,19.29279 -9.14075,5.23245 -17.41417,9.51358 -18.38541,9.51358 -0.97124,0 -4.81162,2.25195 -8.53419,5.00431 -3.72256,2.75239 -11.68193,7.8167 -17.6875,11.25402 -14.74845,8.4414 -18.35035,12.20275 -32.24475,33.67213 -6.56809,10.14891 -14.06121,20.31354 -16.65138,22.58809 -2.59015,2.27453 -4.70939,5.02798 -4.70939,6.11874 0,1.09079 -4.42924,6.50616 -9.84275,12.03418 -5.41351,5.528 -9.84275,10.78366 -9.84275,11.67923 0,0.89558 -2.48152,4.28584 -5.51446,7.53393 -3.03295,3.24808 -7.08482,11.35785 -9.00415,18.02168 -3.55418,12.3399 -8.28417,19.7142 -12.64501,19.7142 -1.33404,0 -4.66761,-4.68706 -7.40792,-10.41569 z m 11.41235,-12.12236 c 1.56001,-8.25322 9.0545,-19.2 28.48433,-41.60543 7.2967,-8.41415 19.66451,-24.43593 27.48404,-35.60394 16.41241,-23.44057 22.97808,-30.20906 35.68223,-36.78449 5.03634,-2.60672 10.63339,-5.68534 12.43789,-6.84141 9.83718,-6.30222 50.86919,-30.29787 51.80867,-30.29787 0.60739,0 3.717,-1.82157 6.91021,-4.04795 6.2265,-4.34124 30.5672,-17.26018 81.26696,-43.13287 17.44354,-8.90163 32.69981,-16.97922 33.90282,-17.95018 1.203,-0.97097 9.56934,-5.42531 18.59186,-9.89852 33.07813,-16.39957 45.42862,-32.139 42.84251,-54.59829 -1.52803,-13.27024 -10.91408,-43.81056 -16.83303,-54.77129 -2.27518,-4.2132 -4.21405,-9.14019 -4.30861,-10.94884 -0.29148,-5.57504 -31.48356,-51.83039 -36.15012,-53.60767 -1.47418,-0.56148 -5.35889,-4.85704 -8.63268,-9.54571 -3.27377,-4.68867 -14.13656,-15.8994 -24.13953,-24.91274 l -18.1872,-16.387881 -7.21349,3.671651 c -20.10079,10.23121 -65.36801,49.84263 -68.6353,60.05984 -1.16875,3.6548 1.49805,7.32215 13.68246,18.81593 32.31962,30.48769 53.12053,48.57466 67.62827,58.80456 8.30912,5.85908 19.5156,13.86752 24.90326,17.79655 5.38766,3.92903 12.57239,8.8683 15.96604,10.97617 3.39365,2.10787 5.67962,4.62048 5.07989,5.58355 -1.54892,2.48745 -28.07059,12.55697 -46.15263,17.52286 -45.63358,12.53237 -72.67003,28.40075 -101.70846,59.69528 -57.33828,61.79317 -96.20112,91.52474 -123.55484,94.52424 -10.36264,1.13631 -11.34237,1.8214 -19.52763,13.65474 -8.3626,12.08975 -9.46505,18.3498 -2.17389,12.34401 3.11101,-2.56256 4.27399,-2.15661 8.80732,3.07422 5.96937,6.8878 5.62216,14.75152 -1.61771,36.63884 -2.2585,6.82778 -4.09292,17.57368 -4.0765,23.87979 0.0518,19.93969 4.66142,28.55528 7.43286,13.89285 z M 259.7853,474.80351 c -0.7252,-1.16462 -2.30441,-0.28246 -3.50934,1.96036 -1.20492,2.24281 -3.76008,6.03164 -5.67813,8.41962 -1.91804,2.38798 -0.33885,1.50582 3.50934,-1.96036 3.84816,-3.46619 6.40332,-7.25503 5.67813,-8.41962 z M 649.62451,178.69888 c -1.96754,-12.91985 -5.01969,-30.0548 -6.78255,-38.07762 -1.76286,-8.02285 -4.13685,-23.52448 -5.27552,-34.4481 -1.13868,-10.923611 -2.61166,-20.398401 -3.27331,-21.055071 -1.27407,-1.26452 -9.60733,2.45936 -18.6946,8.35406 -3.00751,1.9509 -7.43675,4.08781 -9.84276,4.7487 -2.406,0.66086 -12.74089,4.327191 -22.96642,8.147391 -10.22553,3.8202 -22.52897,7.88016 -27.34098,9.02211 -4.81202,1.14197 -9.45756,2.77225 -10.32341,3.62284 -0.86586,0.8506 6.30883,10.68634 15.94373,21.8572 9.63492,11.17085 18.96593,23.08963 20.73562,26.48618 4.28842,8.23073 9.44156,10.646 22.71403,10.646 l 11.08019,0 0.13823,-14.65351 c 0.0759,-8.05943 0.13627,-24.66673 0.13387,-36.90513 -0.004,-22.1332 2.33553,-29.024141 5.02452,-14.79795 0.77489,4.0995 1.28807,21.09538 1.14041,37.7686 -0.15246,17.20347 0.70607,32.1222 1.98473,34.4935 2.97442,5.51611 26.28947,21.15194 28.40676,19.0505 0.42617,-0.42296 -0.83497,-11.33982 -2.80249,-24.2597 z m -326.37287,12.333 c 5.34426,-3.57977 10.31498,-8.05572 11.04604,-9.94654 0.73105,-1.89084 1.32918,-11.53952 1.32918,-21.44153 0,-9.90199 0.61198,-21.04061 1.35994,-24.75244 2.63749,-13.0886 5.2019,-4.12843 5.2019,18.17571 l 0,22.56785 7.10865,1.15711 c 10.21112,1.66207 84.76184,2.54539 84.75924,1.00427 -0.004,-2.2915 -7.97086,-8.52827 -9.25989,-7.2489 -2.07662,2.06106 -22.40101,-4.79598 -40.23505,-13.57451 -19.17927,-9.44072 -36.72743,-24.29278 -50.33922,-42.60506 -10.81817,-14.553971 -9.84179,-15.986441 -13.78005,20.21693 -2.4919,22.90749 -4.88104,39.71281 -7.79283,54.81497 -0.86328,4.47746 -1.01726,8.14084 -0.34218,8.14084 0.67506,0 5.59998,-2.9289 10.94427,-6.5087 z M 695.73088,187.493 c 8.85721,-7.05317 9.06655,-7.53272 10.04147,-23.0004 0.5476,-8.68838 0.32894,-16.77395 -0.48591,-17.96793 -0.81485,-1.19399 -3.7397,-7.82318 -6.49965,-14.73153 -2.75997,-6.90834 -5.31915,-12.26186 -5.68708,-11.89668 -0.36792,0.36517 -2.18668,11.3904 -4.04169,24.50054 -1.85501,13.11011 -4.33528,28.23262 -5.51168,33.60557 -4.71418,21.53075 -3.81494,22.23117 12.18454,9.49043 z m 110.16089,0.27857 c 0,-6.17475 -0.8273,-7.59811 -4.41623,-7.59811 -3.70807,0 -4.18568,0.95732 -2.9785,5.96995 2.88806,11.9923 7.39473,12.98457 7.39473,1.62816 z m 145.86252,-5.02819 c -1.59956,-7.93788 -9.27271,-61.57232 -13.56714,-94.832741 -4.26813,-33.05682 -6.56947,-46.3546 -8.32349,-48.09548 -0.76457,-0.75886 -42.75089,-1.86013 -93.30292,-2.44729 -77.42083,-0.89925 -91.91649,-0.59285 -91.93633,1.94325 -0.0221,2.81621 5.09975,16.43205 25.22245,67.052081 4.50907,11.3429 11.58621,30.38234 15.72699,42.30989 7.66309,22.07363 10.74437,27.92055 13.74423,26.08042 0.92386,-0.56669 28.12597,-1.56539 60.44914,-2.21928 l 58.76939,-1.18893 0.20736,-10.23944 c 0.28872,-14.26088 2.79265,-60.94602 4.42062,-82.421501 0.74671,-9.85042 2.35069,-17.90985 3.56437,-17.90985 1.47057,0 1.63085,17.19894 0.48045,51.558641 -0.94941,28.35725 -1.81277,54.93278 -1.91857,59.05676 -0.1682,6.5575 0.90523,8.11895 8.55677,12.4469 4.81201,2.72182 11.08677,4.96485 13.9439,4.9845 4.5353,0.0313 5.0384,-0.74043 3.96282,-6.07793 z m -230.4959,-13.59127 c -6.93748,-11.72734 -9.4196,-12.32544 -9.4196,-2.26979 0,8.53326 0.31083,8.94936 6.6855,8.94936 l 6.68548,0 -3.95138,-6.67957 z M 426.8798,159.12627 c 4.54525,-6.88496 3.96026,-13.29384 -1.69519,-18.57155 -4.98388,-4.651 -6.44116,-4.77379 -6.44116,-0.54272 0,1.79098 -0.98427,3.25633 -2.18728,3.25633 -1.203,0 -2.18728,-1.55681 -2.18728,-3.45957 0,-1.90277 -1.96855,-3.9705 -4.37455,-4.59497 -5.60005,-1.45348 -5.69349,-4.9708 -0.13212,-4.9708 3.32362,0 4.38957,-1.76328 4.92138,-8.14084 0.37665,-4.51668 1.6526,-7.65761 2.86615,-7.05539 1.203,0.597 1.86463,3.87274 1.47031,7.27943 -0.47596,4.11173 0.78009,7.57825 3.73628,10.31173 5.63706,5.21237 6.82344,5.17342 6.82344,-0.22404 0,-5.93617 3.90234,-5.51024 4.76925,0.52054 1.18876,8.26989 6.75421,6.58843 19.998,-6.04192 13.56778,-12.93932 36.29243,-28.539401 44.58101,-30.604141 2.76056,-0.68765 4.97831,-1.87706 4.92831,-2.64312 -0.0744,-1.13872 -16.33455,-12.11163 -34.23332,-23.10172 -1.94455,-1.19399 -8.52846,-5.34582 -14.63088,-9.22628 -9.1991,-5.84962 -13.2289,-7.0554 -23.57965,-7.0554 -13.37224,0 -24.7264,-3.11692 -22.77423,-6.25194 0.68523,-1.10043 5.46995,-1.01326 11.22249,0.2045 9.66571,2.04604 14.31827,1.2051 11.08528,-2.00369 -0.85258,-0.84617 -6.18407,-2.0673 -11.84777,-2.71361 -5.66369,-0.6463 -9.95314,-2.15201 -9.53209,-3.346 0.42105,-1.19399 1.40533,-2.01821 2.18728,-1.8316 0.78195,0.1867 7.08131,1.03185 13.99858,1.8783 l 12.57685,1.53903 -0.03,-8.39099 c -0.0599,-16.81417 -0.81664,-17.5884 -18.20861,-18.62845 -14.03537,-0.83935 -24.34898,0.0918 -75.81451,6.84521 -7.81952,1.02607 -18.15441,3.186 -22.96643,4.79984 -8.4442,2.83197 -8.77273,3.30294 -9.42682,13.51439 -0.72495,11.31763 4.54082,31.38452 13.52869,51.55543 4.71295,10.576961 15.88496,25.414911 25.42639,33.769691 1.80451,1.58008 7.71016,6.93562 13.12368,11.90121 8.49854,7.79531 16.97956,12.44375 45.93285,25.17568 8.74447,3.84529 12.76071,3.09545 16.88546,-3.15253 z m -27.82186,-27.53203 c 0,-1.64477 -1.37479,-4.12295 -3.05512,-5.50703 -3.15633,-2.59992 -2.29785,-11.04045 1.12295,-11.04045 1.06269,0 1.93217,-1.46535 1.93217,-3.25633 0,-1.79099 0.98428,-3.25634 2.18728,-3.25634 1.20301,0 2.18728,2.73532 2.18728,6.07849 0,3.34317 1.23034,7.37289 2.7341,8.95492 2.18728,2.30115 2.18728,3.07544 0,3.87142 -1.50376,0.54726 -2.7341,2.37895 -2.7341,4.07042 0,1.69149 -0.98427,3.07543 -2.18728,3.07543 -1.203,0 -2.18728,-1.34573 -2.18728,-2.99053 z m -13.91223,-7.1993 c -0.76928,-0.76355 -1.39872,-3.64907 -1.39872,-6.41229 0,-3.52902 -1.60388,-5.4236 -5.38982,-6.36668 -2.9644,-0.73845 -6.03363,-3.44353 -6.82055,-6.0113 -0.7869,-2.56779 -2.8332,-6.257571 -4.54735,-8.199511 -2.7077,-3.06756 -2.67375,-3.69953 0.25871,-4.81638 4.84351,-1.8447 4.1641,-5.76359 -0.99922,-5.76359 -2.97469,0 -4.37455,1.44727 -4.37455,4.52268 0,2.66447 -1.12337,4.14247 -2.7341,3.59728 -1.50376,-0.50899 -2.43667,-2.971 -2.07317,-5.47115 0.43046,-2.96057 -1.09502,-5.46384 -4.37456,-7.17859 -6.5332,-3.41598 -8.24199,-6.13248 -8.28291,-13.16768 -0.0258,-4.43828 -1.5449,-6.28051 -6.6293,-8.03967 -3.62771,-1.25515 -6.46397,-3.06029 -6.30281,-4.01144 1.37542,-8.11804 -0.7264,-13.96588 -5.69325,-15.84011 -7.97246,-3.00842 -7.00717,-7.19314 1.24432,-5.39438 5.63375,1.22811 6.90504,0.7325 7.91058,-3.08386 1.68713,-6.40328 5.06241,-5.66294 5.06241,1.11041 0,3.449 2.13461,7.32402 5.4682,9.92657 3.67202,2.86679 5.46819,6.41847 5.46819,10.81272 0,5.27722 1.26998,7.01947 6.56184,9.00194 5.39779,2.02217 6.56184,3.68405 6.56184,9.36807 0,5.76349 1.11599,7.29592 6.72706,9.23731 5.18354,1.79346 6.42688,3.26619 5.41881,6.41854 -0.76673,2.3977 0.0803,5.23477 2.0463,6.85423 2.99977,2.47091 2.96329,3.04713 -0.3448,5.447941 -3.42031,2.48226 -3.36134,2.86434 0.7818,5.06505 5.09452,2.70608 7.24361,1.41803 7.24361,-4.34145 0,-2.188971 0.98428,-3.979961 2.18728,-3.979961 1.203,0 2.18728,2.24687 2.18728,4.993051 0,2.74618 1.17743,6.16166 2.61653,7.58997 2.03054,2.01533 1.71076,3.2543 -1.42779,5.53208 -2.2244,1.61432 -3.38577,3.99272 -2.58086,5.28536 1.64062,2.6347 -1.59264,5.47685 -3.771,3.31484 z M 357.49965,76.148299 c 0,-1.09634 0.59743,-3.53859 1.32766,-5.42722 1.00142,-2.59011 -0.0735,-3.4339 -4.37456,-3.4339 -8.81349,0 -7.52997,9.74945 1.40644,10.68306 0.90225,0.0942 1.64046,-0.72562 1.64046,-1.82194 z m -10.93639,-22.71871 c 0,-6.73141 -7.87298,-9.19066 -10.97949,-3.42961 -1.66377,3.08548 -1.27255,4.55057 1.66909,6.25083 6.25212,3.61371 9.3104,2.687 9.3104,-2.82122 z m 156.12801,18.7421 c -1.57175,-8.05943 -2.8939,-21.24759 -2.9381,-29.30702 -0.0932,-16.97508 -0.58517,-17.23725 -18.0631,-9.62498 -6.35006,2.76569 -16.24623,6.31885 -21.99149,7.89589 -5.74526,1.57707 -11.01739,3.7851 -11.71583,4.90675 -1.84291,2.95956 5.13899,8.6871 23.25539,19.07733 4.21051,2.41485 13.06899,8.26175 19.68551,12.99314 6.61651,4.73137 12.61397,8.62723 13.32768,8.65745 0.71371,0.0302 0.0109,-6.53913 -1.56006,-14.59856 z m 305.38777,-49.49714 c 0,-8.19774 -3.85166,-11.89446 -7.44046,-7.14116 -1.32127,1.74997 -5.60118,5.04054 -9.51094,7.31238 -3.90977,2.27183 -7.10866,4.82895 -7.10866,5.68248 0,2.07621 8.19549,3.12004 16.95141,2.15901 6.44022,-0.70686 7.10865,-1.46029 7.10865,-8.01271 z m 85.30387,7.97331 c 0,-1.04778 -1.34581,-3.01363 -2.99071,-4.36855 -2.25931,-1.86099 -3.59197,-1.74442 -5.44923,0.47667 -1.35218,1.61707 -1.81085,3.5829 -1.0193,4.36854 2.12269,2.10676 9.45924,1.73708 9.45924,-0.47666 z m -41.54749,-4.06486 c 0.0109,-3.77405 9.52348,-31.1552504 16.19127,-46.60441 4.9479,-11.46427 4.57944,-12.14161 -5.96327,-10.96221 -7.06961,0.79088 -10.39815,0.11245 -13.22783,-2.69598 -2.07962,-2.06404 -4.01796,-3.39228 -4.30743,-2.95165 -3.85825,5.87319 -12.29323,24.68616 -14.47263,32.2790696 -1.54221,5.37295 -4.16499,14.09485 -5.82842,19.3820104 -4.82483,15.33564 -4.81155,15.35223 12.28656,15.35223 13.11956,0 15.3125,-0.54375 15.32175,-3.79906 z M 347.6569,8.4542886 c 10.82702,-2.22089 34.20357,-5.21839 51.94786,-6.66114 18.05861,-1.46828003 32.26236,-3.56955 32.26236,-4.77283 0,-1.18233 -1.19427,-5.42768 -2.65395,-9.4340996 -2.72144,-7.46958 -8.99862,-10.76143 -16.70618,-8.76095 -3.21217,0.8337 -3.78388,0.0195 -2.96658,-4.22362 0.72939,-3.78695 2.00438,-4.87521 4.56089,-3.89295 10.15958,3.90346 15.18426,3.23224 31.0671,-4.15 9.11901,-4.23847 20.08034,-10.41747 24.35852,-13.7311 4.27817,-3.31365 9.99532,-7.49016 12.70477,-9.28114 2.70944,-1.79098 10.93508,-8.90065 18.27917,-15.79926 11.84398,-11.12551 13.37589,-13.52308 13.55623,-21.216844 0.18679,-7.971165 -0.65428,-9.285435 -10.3815,-16.221365 -8.60211,-6.13372 -12.57123,-7.54745 -21.18972,-7.54745 -14.09148,0 -23.95534,-3.50295 -32.5837,-11.57143 -6.60164,-6.17329 -7.11209,-7.66215 -7.15673,-20.87506 l -0.0481,-14.22764 -9.78991,-6.51267 c -5.38445,-3.58197 -9.8113,-7.97802 -9.83748,-9.76901 -0.0654,-4.48377 -13.10775,11.17518 -33.26033,39.93339 -33.69002,48.076532 -58.18909,97.017879 -70.74993,141.3359186 -4.44667,15.6890704 -4.25216,16.6186004 2.88668,13.7957304 3.30826,-1.30818 14.8735,-4.1956 25.70052,-6.4164804 z m -0.19533,7.0451404 c 0.63611,-1.02151 -1.27437,-1.39607 -4.24546,-0.83238 -2.97111,0.56371 -5.40201,1.39949 -5.40201,1.8573 0,1.67973 8.52741,0.7738 9.64747,-1.02492 z m 39.17775,-4.65462 c 9.41037,-1.1944104 23.98651,-2.1716504 32.3915,-2.1716504 8.40496,0 14.79374,-0.78369 14.19729,-1.74153 -2.26884,-3.64358 -74.31979,2.29274 -79.00938,6.5096304 -1.32437,1.19088 1.26438,1.49504 6.56184,0.77099 4.81201,-0.6577 16.44846,-2.17304 25.85879,-3.36744 z M 799.46823,9.5931386 c 2.3713,-2.83582 2.32353,-3.75951 -0.27899,-5.39397 -5.01245,-3.14801 -6.42115,-2.40463 -6.42115,3.38854 0,6.2083304 2.54805,6.9709904 6.70019,2.00543 z m 19.54721,-13.87542 c 0,-4.71917 -6.69323,-7.5227796 -13.12367,-5.49713 -4.19359,1.32103 -4.75994,2.18876 -5.24947,8.04298 -0.2913,3.48373 9.72582,5.88016 14.5454,3.47972 2.10526,-1.04854003 3.82774,-3.76005 3.82774,-6.02557 z m -216.54058,-3.27049 c 0,-3.7726396 -1.95316,-6.3739296 -6.56184,-8.7393096 -7.00651,-3.59605 -7.30969,-3.16848 -5.19479,7.3267596 1.07061,5.31297 2.4935,6.78403 6.56184,6.78403 4.06853,0 5.19479,-1.16455 5.19479,-5.37148 z m 26.24734,-9.5237096 c 0,-12.40199 -0.13846,-12.69802 -5.4682,-11.68682 -3.00751,0.57062 -5.46819,1.86983 -5.46819,2.88716 0,1.01732 1.47641,1.28738 3.28091,0.60012 3.61247,-1.37585 3.93041,-0.64912 1.95327,4.46461 -1.58992,4.11223 -13.96707,4.74825 -14.01679,0.72028 -0.0262,-2.13052 -0.41328,-2.11968 -1.801,0.0506 -0.97211,1.52025 -1.33746,5.67208 -0.81187,9.22628 0.9106,6.1579496 1.45878,6.4621696 11.64373,6.4621696 l 10.68814,0 0,-12.7242996 z m 10.85944,6.35434 c 3.14715,-5.83644 2.88747,-6.65538 -2.11033,-6.65538 -3.20801,0 -4.37455,1.44727 -4.37455,5.42722 0,6.4636796 3.32245,7.0929096 6.48488,1.22816 z m 179.02224,-11.56481 c 0.5688,-2.93137 -0.78593,-3.77413 -6.06686,-3.77413 -6.18774,0 -6.58228,0.40222 -4.38735,4.47275 2.81308,5.21691 9.3917,4.77728 10.45421,-0.69862 z m 63.33504,-5.94502 c 1.50257,-2.38798 1.97609,-4.34178 1.05227,-4.34178 -0.92382,0 -2.90906,1.9538 -4.41163,4.34178 -1.50257,2.38798 -1.9761,4.34178 -1.05228,4.34178 0.92382,0 2.90906,-1.9538 4.41164,-4.34178 z m -270.71495,1.21357 c 0,-0.52653 -0.98427,-1.56109 -2.18728,-2.29902 -1.203,-0.73793 -2.18728,-0.30713 -2.18728,0.95732 0,1.26446 0.98428,2.29902 2.18728,2.29902 1.20301,0 2.18728,-0.43079 2.18728,-0.95732 z m 19.68551,-21.74578 c 0,-7.39214 -0.96569,-9.65901 -4.92138,-11.55248 -3.91822,-1.87552 -4.14115,-2.38566 -1.09364,-2.50262 5.13958,-0.19734 4.83196,-4.77108 -0.71856,-10.68423 -3.21627,-3.42638 -5.93582,-4.4274 -9.29594,-3.42167 -8.17128,2.44576 -9.19223,4.96398 -3.97021,9.79256 3.88537,3.59267 4.3751,5.1821 2.34485,7.61009 -1.41145,1.68796 -3.82884,3.06899 -5.37196,3.06899 -1.87817,0 -2.66069,2.79949 -2.36712,8.46849 0.50185,9.69077 5.33615,17.35086 8.12437,12.87325 0.93961,-1.50895 0.90089,-3.75323 -0.086,-4.98725 -0.98697,-1.23405 -2.4734,-4.44173 -3.30321,-7.12821 -1.29623,-4.19652 -0.70811,-4.8845 4.17551,-4.8845 6.50315,0 9.10908,4.45985 5.91543,10.12381 -1.47081,2.60852 -1.43277,5.26958 0.11637,8.14256 2.24865,4.17019 2.39434,4.15356 6.37637,-0.72716 2.54201,-3.11582 4.07508,-8.45467 4.07508,-14.19163 z m 245.95915,0.84747 c 6.05187,-13.38434 6.76685,-17.07288 3.39061,-17.49175 -1.203,-0.14914 -3.17156,-0.51559 -4.37456,-0.81408 -1.203,-0.2985 -3.41762,-0.79344 -4.92138,-1.09986 -1.50375,-0.30643 0.50354,-1.16121 4.46063,-1.89953 8.25608,-1.54042 9.56821,-6.0415 1.45351,-4.98608 -3.64256,0.47375 -5.36732,-0.35709 -5.36732,-2.58551 0,-1.80596 -1.12782,-3.97538 -2.50627,-4.82094 -1.77482,-1.08866 -2.08524,0.2995 -1.06361,4.7564 1.14918,5.01328 0.96947,5.52081 -0.88331,2.49468 -3.26258,-5.32878 -7.26456,-4.9627 -4.37287,0.40001 3.90239,7.23705 2.37366,10.16035 -2.34518,4.48449 l -4.51213,-5.42722 1.1883,5.31425 c 0.65358,2.92284 0.26628,6.41693 -0.86065,7.76462 -1.12693,1.34769 -3.49737,5.89093 -5.26767,10.09609 -2.85435,6.78026 -2.83941,8.18317 0.1319,12.39359 2.60159,3.68645 5.24205,4.63709 11.81134,4.25238 8.03114,-0.47032 8.74391,-1.1218 14.03861,-12.83154 z m -21.39854,9.55391 c -2.0006,-1.98558 -1.84827,-11.59637 0.1822,-11.50113 0.90225,0.0423 3.94701,1.34662 6.76613,2.8985 4.78169,2.63223 4.8813,3.06411 1.48422,6.43574 -3.91718,3.88782 -6.12666,4.4556 -8.43262,2.16689 z m 32.18556,0.24907 c 0.74694,-1.93192 0.38026,-2.80332 -0.85962,-2.04277 -1.18922,0.72947 -2.16223,2.24557 -2.16223,3.3691 0,3.12267 1.56777,2.43456 3.02185,-1.32633 z m -255.65253,-37.87782 c 0.7435,-1.19399 0.30945,-2.17089 -0.96455,-2.17089 -1.274,0 -2.31637,0.9769 -2.31637,2.17089 0,1.19399 0.43404,2.17089 0.96455,2.17089 0.5305,0 1.57287,-0.9769 2.31637,-2.17089 z m 246.70204,-6.51484 c -0.62887,-2.38678 -2.00672,-4.33961 -3.06187,-4.33961 -1.54118,0 -1.51191,3.87424 0.0787,10.43985 0.0895,0.36897 1.05439,0.12375 2.14447,-0.54489 1.09007,-0.66865 1.4674,-3.16854 0.83854,-5.55535 z m -327.08453,-0.87717 c 2.70676,-0.87126 4.92138,-2.98365 4.92138,-4.69418 0,-1.71051 1.84803,-3.11004 4.10674,-3.11004 2.2587,0 5.19835,-1.305463 6.53255,-2.901023 4.55284,-5.444744 9.19094,-21.895406 7.8639,-27.892116 -2.8154,-12.72235 -28.95322,-9.07877 -44.42245,6.19244 -7.98009,7.87794 -9.0772,8.45963 -9.0772,4.81276 0,-1.33145 3.62255,-5.71409 8.05008,-9.73916 4.42755,-4.02509 7.62645,-7.58613 7.10866,-7.91339 -0.51778,-0.32728 -5.0898,-3.77813 -10.16002,-7.66858 l -9.21862,-7.07352 -3.31453,6.3616 c -1.82301,3.49888 -5.79491,8.29805 -8.82646,10.66477 -3.03155,2.36675 -5.5119,5.18891 -5.5119,6.27147 0,1.08253 4.31469,4.67512 9.5882,7.98349 7.95909,4.9932 9.82248,7.46947 10.96715,14.574224 1.87032,11.608685 6.92527,16.145625 17.72426,15.907935 4.81079,-0.10594 10.9615,-0.90541 13.66826,-1.77668 z m -342.779,-8.981665 c 3.46642,-4.145488 1.1137,-6.57098 -8.27922,-8.535334 -5.5636,-1.16353 -7.10865,-0.76815 -7.10865,1.819078 0,3.033927 7.79255,10.064591 11.15525,10.064591 0.78803,0 2.69271,-1.50675 4.23262,-3.348335 z m 13.12368,-10.854454 c 3.81513,-4.56251 0.66268,-7.07471 -9.91968,-7.90505 -10.21188,-0.80128 -11.87667,3.18508 -3.28092,7.85617 7.358,3.998471 9.89015,4.007849 13.2006,0.0488 z m 672.01149,-9.79853 c 5.74016,-1.11295 15.09078,-4.33826 20.77915,-7.16732 5.68836,-2.82906 13.78746,-6.26124 17.99798,-7.62705 8.0256,-2.60335 28.73675,-17.64745 24.29517,-17.64745 -1.4123,0 -7.21041,2.32075 -12.88467,5.15721 -13.48763,6.74222 -29.73502,10.03902 -49.47469,10.03902 -24.26925,0 -42.86512,2.37331 -42.86512,5.47067 0,1.4747 -1.5092,3.9244 -3.35376,5.44379 -11.10061,9.14365 13.41159,12.55397 45.50594,6.33113 z m -659.29474,-2.74018 c 1.88534,-2.25466 0.0807,-3.59556 -8.50747,-6.32139 -10.43319,-3.31139 -10.99715,-3.28028 -13.15724,0.72562 -1.85788,3.44546 -1.36994,4.53859 2.76028,6.1838 7.39602,2.94607 16.17766,2.67291 18.90443,-0.58803 z m 611.61819,-10.05582 c 6.50228,-12.4798 2.43501,-22.08694 -5.40037,-12.75602 -4.85792,5.78516 -5.31863,9.03357 -2.12199,14.96182 2.9803,5.527 3.58592,5.34942 7.52236,-2.2058 z m -351.7751,-0.26183 c 11.3856,-5.47038 18.01338,-15.4956 19.72455,-29.83543 2.07886,-17.42109 -7.87886,-28.98683 -27.65953,-32.1262 -22.97338,-3.64605 -41.86513,16.81858 -37.95128,41.11105 1.6344,10.14446 12.99373,22.4403 21.97233,23.7838 12.10429,1.81124 14.7025,1.49255 23.91393,-2.93322 z m -234.11438,-14.49948 c 41.24429,-39.75167 75.60902,-71.17964 80.75975,-73.85817 3.16364,-1.64519 19.36428,-3.78669 37.73082,-4.98749 17.70265,-1.15741 39.5687,-3.11195 48.59123,-4.34343 37.15786,-5.07168 46.50707,-5.05757 53.0415,0.0801 3.30826,2.60111 6.01502,6.12375 6.01502,7.82808 0,4.33246 -1.68609,3.9033 -9.14801,-2.32846 -3.57421,-2.98497 -8.95946,-5.42722 -11.96721,-5.42722 -6.39856,0 -18.26153,10.83152 -18.24359,16.65741 0.0175,5.96801 4.2578,19.92736 6.46271,21.27984 1.0661,0.65394 5.51688,-0.90656 9.89065,-3.4678 6.5485,-3.83477 10.2221,-4.45254 20.81032,-3.49962 7.07191,0.63644 15.10712,2.72071 17.856,4.63168 2.74891,1.91099 5.69104,3.47451 6.53808,3.47451 0.84703,0 4.60289,-5.31317 8.34635,-11.80702 6.386,-11.07794 14.48062,-42.06752 11.65209,-44.60914 -0.6809,-0.61184 -1.6774,0.10876 -2.21446,1.60119 -2.26377,6.29106 -4.4185,1.8929 -4.51916,-9.22431 -0.12796,-14.14022 -6.64554,-26.41496 -15.15047,-28.53357 -7.45748,-1.8577 -52.36081,0.42947 -72.80799,3.70847 -21.19694,3.39924 -67.6466,13.50988 -93.81492,20.42056 -20.3802,5.38213 -20.6595,5.54812 -35.66679,21.19527 -8.31914,8.67385 -16.78765,18.21289 -18.81888,21.19787 -2.03126,2.98497 -5.94645,7.23399 -8.70045,9.44228 -2.754,2.20827 -10.5499,11.48883 -17.32423,20.62346 -6.77435,9.1346 -17.5677,22.57814 -23.98524,29.87448 -7.61219,8.65462 -11.66823,15.20752 -11.66823,18.8511 0,5.55452 1.72209,6.41465 15.4545,7.71901 1.88346,0.17888 11.27975,-7.24572 20.88061,-16.49913 z m 304.88035,5.09399 c 4.63064,-0.17736 6.0746,-2.03827 9.42735,-12.14939 7.2358,-21.82152 10.60121,-42.09507 10.68689,-64.37893 0.0466,-12.12564 -0.52355,-23.02355 -1.26707,-24.21758 -2.1177,-3.40083 -11.12627,1.78601 -15.13131,8.71211 -4.79983,8.30057 -9.17852,7.94695 -4.83457,-0.39042 l 3.36822,-6.46458 -6.07108,1.20513 c -3.3391,0.66281 -10.42297,-0.28302 -15.74195,-2.10182 -5.31898,-1.81881 -10.31405,-2.9124 -11.10016,-2.43022 -0.78608,0.4822 -1.60721,5.54638 -1.82473,11.25376 -0.36377,9.54553 -8.47746,29.85903 -16.047,40.17549 -2.19723,2.99457 -1.96909,5.74398 1.20305,14.49933 2.15292,5.9422 3.65206,12.58298 3.33142,14.75727 -1.05118,7.1281 2.62108,13.68471 10.80096,19.28443 6.8933,4.71895 9.4567,5.28948 17.88903,3.98159 5.41351,-0.83966 12.30344,-1.62094 15.31095,-1.73617 z m 273.35547,-6.63487 c 3.72502,-5.98206 4.19166,-8.41085 2.29255,-11.93277 -2.29299,-4.25239 -2.63971,-4.13338 -9.04157,3.10328 -4.7109,5.32522 -6.24508,8.81382 -5.24768,11.93278 2.0955,6.55287 6.73039,5.35393 11.9967,-3.10329 z m -2.13292,-20.73641 c 0,-0.72347 -1.23035,-2.90549 -2.7341,-4.84898 -2.44562,-3.16077 -3.72647,-2.6479 -12.13933,4.86079 -9.15912,8.17475 -9.30416,8.51154 -5.54327,12.87106 3.85858,4.4727 3.86928,4.46958 12.13933,-3.54541 4.55256,-4.41214 8.27737,-8.61399 8.27737,-9.33746 z m -16.87446,-5.2453 8.27926,-7.26111 -8.00483,-13.81469 c -8.66376,-14.95185 -23.75172,-39.91385 -34.59345,-57.2325 -3.73727,-5.96994 -8.70331,-14.58521 -11.03563,-19.14501 -2.33234,-4.5598 -5.89786,-9.17086 -7.92341,-10.24677 -3.6011,-1.91282 -21.62508,-0.39398 -52.33509,4.41009 -7.81952,1.22323 -25.04434,3.63221 -38.27737,5.35327 -41.56923,5.40638 -58.69648,9.65342 -76.95266,19.08192 l -9.14705,4.72403 1.24572,22.87647 c 0.68515,12.58207 1.60391,23.28499 2.04167,23.78427 0.43779,0.49931 3.00911,-0.16368 5.71405,-1.47314 9.28141,-4.49338 29.45107,-9.71046 89.90135,-23.25395 13.91453,-3.11746 34.3765,-10.28485 51.06486,-17.88696 8.12557,-3.70145 10.36289,-2.77179 15.06963,6.26187 8.37511,16.07433 51.31155,71.41646 55.21914,71.17369 0.8,-0.0497 5.18022,-3.35787 9.73381,-7.35148 z m -369.53246,-14.26705 c -0.75255,-1.79098 -2.84018,-7.46803 -4.63915,-12.61567 -2.23892,-6.40642 -3.97995,-8.65557 -5.51829,-7.12876 -1.53833,1.5268 -1.35946,7.16185 0.56695,17.86054 l 2.81432,15.62997 4.07221,-5.24487 c 2.23973,-2.88468 3.45652,-6.71022 2.70396,-8.50121 z m -13.86507,-0.95731 c 0,-8.47924 -3.0674,-11.50548 -7.75128,-7.64733 -4.127,3.39944 -4.03986,7.44617 0.25204,11.70591 5.31467,5.27487 7.49924,4.09259 7.49924,-4.05858 z m 143.95071,-59.14117 c 6.52186,-4.04291 17.31837,-20.96606 20.49867,-32.13095 3.1307,-10.99078 2.70873,-34.09156 -0.79857,-43.71816 -2.03329,-5.58081 -3.6208,-7.04768 -6.60873,-6.10647 -2.64346,0.83273 -3.93258,0.1233 -3.93258,-2.16382 0,-2.51308 2.25004,-3.40263 8.60673,-3.40263 10.74767,0 16.92409,2.32924 25.29609,9.53959 3.60901,3.10823 7.54611,5.57541 8.74912,5.4826 1.203,-0.0929 0.91585,-0.67506 -0.63812,-1.29389 -2.16871,-0.86367 -2.23393,-1.83249 -0.28063,-4.16844 3.89531,-4.6584 -1.41915,-15.09144 -10.35199,-20.32246 -8.57079,-5.01898 -23.77537,-6.30274 -30.75281,-2.59651 -5.82757,3.09545 -7.19022,3.1377 -7.19022,0.22299 0,-3.0753 13.68473,-8.57278 21.34005,-8.57278 3.39328,0 10.0308,1.95381 14.75005,4.34178 12.54948,6.35016 14.27264,5.16835 4.70035,-3.22368 -12.77964,-11.2039 -31.27863,-11.15712 -43.12675,0.10898 -4.77076,4.53644 -6.41282,5.20944 -6.41282,2.62832 0,-4.33853 11.65818,-14.26212 18.86373,-16.05706 2.97159,-0.74023 9.29351,-0.72839 14.04871,0.0263 8.97846,1.42495 10.43179,-0.21752 7.3182,-8.27059 -2.7678,-7.15877 -24.06245,-2.31328 -33.35904,7.59067 -3.39157,3.61316 -4.68432,4.09082 -4.68432,1.73083 0,-5.95825 12.14771,-15.20952 21.62873,-16.47165 10.76124,-1.43257 11.44828,-3.69312 2.10495,-6.92583 -14.82041,-5.12771 -41.43548,0.70276 -39.29247,8.60766 2.5089,9.25455 2.72262,12.88888 0.75794,12.88888 -1.20294,0 -2.74427,-2.11445 -3.42519,-4.69878 -1.04572,-3.9688 -1.76496,-4.26476 -4.62968,-1.90509 -1.86538,1.53656 -3.39162,4.13945 -3.39162,5.78423 0,1.64479 -0.98428,2.99053 -2.18728,2.99053 -1.203,0 -2.18728,-1.89614 -2.18728,-4.21366 0,-2.31751 -0.98427,-4.81742 -2.18728,-5.55535 -1.203,-0.73793 -2.18727,-3.23784 -2.18727,-5.55535 0,-5.9018 -13.58073,-5.7321 -22.08196,0.27594 -7.6119,5.37956 -8.12931,9.63391 -1.43129,11.76901 5.41485,1.72603 6.23517,1.30802 -8.87337,4.5217 -3.8509,0.8191 -4.72238,2.08418 -3.68036,5.34269 1.64006,5.12868 -2.26854,5.72045 -5.06189,0.76639 -1.59759,-2.83334 -2.86334,-3.03134 -6.62039,-1.03569 -8.95349,4.75586 -11.44813,17.55073 -3.97671,20.39629 5.51572,2.10073 14.40119,-1.14217 15.85208,-5.78544 2.3686,-7.58038 9.66434,-16.58475 13.43768,-16.58475 2.81704,0 2.52062,1.04869 -1.49593,5.29204 -5.31016,5.61008 -8.26874,20.73174 -5.89373,30.12364 1.38676,5.48386 6.37636,8.18293 22.85424,12.36265 16.42649,4.16668 9.42875,12.24929 -11.07342,12.79019 -8.99064,0.23719 -10.70492,-2.6433 -3.76648,-6.32882 4.7777,-2.53779 3.92739,-7.02995 -0.9771,-5.162 -2.96172,1.12799 -12.20783,-9.57838 -12.20783,-14.13586 0,-1.30818 -0.93307,-2.37849 -2.0735,-2.37849 -2.96044,0 1.88294,13.51522 6.02121,16.80197 4.14279,3.29033 2.4408,5.5377 -2.70858,3.5765 -4.27044,-1.62644 -7.80097,-9.43947 -7.80097,-17.26346 0,-6.58829 -3.07455,-6.77652 -7.53145,-0.46108 -4.43736,6.28774 -4.29755,7.62675 0.96962,9.28596 7.2575,2.28619 5.11595,5.93382 -2.50805,4.27186 l -6.88258,-1.50035 1.23545,9.14186 c 1.3401,9.91634 7.56179,17.39364 14.47287,17.39364 3.79569,0 4.07684,-0.81836 2.34286,-6.81915 -1.17105,-4.05264 -1.1688,-8.23608 0.007,-10.31173 2.20709,-3.90094 2.75833,-2.95755 5.52996,9.46389 0.79081,3.54408 5.32806,10.63256 10.08279,15.75219 4.75475,5.11963 9.22408,12.18227 9.93189,15.69477 1.61388,8.00896 11.04949,17.53734 20.72656,20.93036 8.72713,3.05993 24.99539,1.6545 32.14412,-2.77698 z m -19.27583,-15.28693 c -1.8045,-0.67781 -4.06803,-2.55448 -5.03006,-4.17038 -0.96203,-1.61591 -3.17665,-2.93802 -4.92138,-2.93802 -1.74472,0 -3.17223,-0.9769 -3.17223,-2.17089 0,-1.19399 1.35589,-2.17089 3.01311,-2.17089 1.65719,0 4.2384,-1.46535 5.73601,-3.25634 3.01116,-3.60105 18.82078,-4.42006 23.88711,-1.23747 2.64228,1.65984 2.54322,2.80785 -0.66121,7.66177 -2.93957,4.45275 -12.74202,10.71321 -15.166,9.68599 -0.22243,-0.0942 -1.88084,-0.72595 -3.68535,-1.40377 z m 14.21731,-9.27929 c 0.81641,-1.31107 -2.16457,-2.17089 -7.52638,-2.17089 -4.88301,0 -8.87821,0.9769 -8.87821,2.17089 0,1.19399 3.38687,2.17089 7.52639,2.17089 4.13951,0 8.1347,-0.9769 8.8782,-2.17089 z m -9.15056,-42.58784 c -0.63812,-1.65047 -0.60577,-4.43492 0.072,-6.18767 1.37728,-3.56228 -1.96035,-6.67364 -3.86974,-3.60737 -2.40281,3.85872 -16.22435,4.82899 -23.83427,1.67319 -14.9021,-6.17983 -19.27001,-21.95247 -9.21931,-33.29124 5.64694,-6.37063 7.3956,-3.78423 2.95013,4.36344 -5.81656,10.66055 0.853,25.36524 11.50481,25.36524 3.87093,0 3.85111,-0.34879 -0.4286,-7.54803 -3.88887,-6.54178 -4.14802,-8.56766 -1.94388,-15.19623 1.75551,-5.27943 3.86676,-7.6482 6.81676,-7.6482 4.36196,0 4.9704,0.95305 7.27618,11.39718 1.47911,6.69964 5.60921,8.14622 5.60921,1.96463 0,-2.20293 1.96855,-5.77348 4.37456,-7.93458 5.03367,-4.52127 5.40354,-3.13253 1.79996,6.75835 -2.87479,7.89049 0.0256,13.8651 6.73086,13.8651 1.99137,0 5.30617,1.9538 7.36625,4.34178 2.20559,2.55664 6.45235,4.34178 10.32886,4.34178 3.6208,0 6.58325,0.94254 6.58325,2.09452 0,6.15213 -29.87971,11.03466 -32.11699,5.24811 z m -7.25403,-15.76038 c 0,-1.04778 -1.54649,-3.17895 -3.43667,-4.73589 -1.89016,-1.55694 -4.76271,-5.82838 -6.38342,-9.49208 l -2.94672,-6.66129 -0.17849,6.57235 c -0.20276,7.46827 5.07933,16.22199 9.7884,16.22199 1.73631,0 3.1569,-0.85728 3.1569,-1.90508 z m 79.60166,33.20543 c 2.08095,-5.38224 1.55559,-15.70806 -0.87507,-17.19905 -2.50196,-1.53469 -3.50188,0.90083 -5.12877,12.4921 -0.82743,5.89538 -0.3401,8.14084 1.76679,8.14084 1.60017,0 3.50684,-1.54524 4.23705,-3.43389 z m -102.06682,-13.07392 c -0.72681,-0.72137 -2.61336,-0.7985 -4.19229,-0.1715 -1.74486,0.69301 -1.22659,1.20742 1.32148,1.31158 2.30575,0.0942 3.59762,-0.41883 2.87081,-1.14019 z m -45.75059,-24.60342 c 0.54682,-1.62816 -0.27341,-2.44225 -1.91387,-1.89952 -1.57895,0.52238 -3.30141,2.23193 -3.82773,3.79905 -0.54682,1.62817 0.27341,2.44225 1.91386,1.89953 1.57894,-0.52238 3.30142,-2.23193 3.82774,-3.79906 z m 149.14506,-14.10514 c 0,-8.40188 -12.39167,-27.27744 -17.90744,-27.27744 -3.84307,0 -1.72765,12.89936 2.48214,15.13548 2.34312,1.2446 6.0003,5.18658 8.12708,8.75993 4.14828,6.96989 7.29822,8.42957 7.29822,3.38203 z m -155.29678,-11.61315 c 0,-0.93657 2.95283,-3.43404 6.56184,-5.54997 3.60901,-2.11592 6.56183,-5.19958 6.56183,-6.85261 0,-5.59551 -4.80444,-5.99358 -9.84553,-0.81575 -5.75788,5.91405 -9.14604,14.92115 -5.61282,14.92115 1.28409,0 2.33468,-0.76628 2.33468,-1.70282 z m 27.42121,-20.68144 c 4.0214,-5.5057 9.63092,-10.11595 14.21731,-11.68473 l 7.57525,-2.59108 -6.7726,-0.12244 c -7.2238,-0.13069 -20.38747,5.37688 -20.84179,8.72003 -0.15049,1.10654 -0.39645,2.90738 -0.54682,4.00188 -0.15049,1.0945 -1.01162,2.72267 -1.91387,3.61814 -0.90225,0.89549 -1.64046,2.9307 -1.64046,4.5227 0,4.95056 3.02457,2.98018 9.92298,-6.46441 z m 38.19715,0.54724 c 0,-1.12352 -0.98428,-2.04276 -2.18728,-2.04276 -1.203,0 -2.18728,1.52301 -2.18728,3.38446 0,1.86145 0.98428,2.78069 2.18728,2.04276 1.203,-0.73793 2.18728,-2.26094 2.18728,-3.38446 z m 66.84662,-12.2464 c -1.01594,-2.62763 -2.00976,-2.91442 -3.832,-1.10583 -1.82226,1.80859 -1.68258,3.372 0.53857,6.02828 3.39252,4.05711 5.53001,0.86234 3.29343,-4.92245 z m -49.34839,-4.05316 c 5.41351,-4.10075 12.05737,-8.58874 14.76413,-9.97335 11.68851,-5.97909 0.31037,-8.56388 -13.14161,-2.98539 -8.34904,3.46231 -19.89739,15.52846 -17.91265,18.71579 2.10705,3.38374 6.07366,1.98191 16.29013,-5.75705 z m 37.18373,-3.11032 c -1.79733,-3.33319 -4.57976,-4.34178 -11.9779,-4.34178 -5.3002,0 -10.24502,0.9769 -10.98852,2.17089 -0.80969,1.30027 1.98942,2.18422 6.97956,2.20412 4.58226,0.0174 9.8078,0.98022 11.61231,2.13766 5.22543,3.35163 6.90342,2.51892 4.37455,-2.17089 z m -585.668273,598.758 c 0.19904,-12.01268 -0.54706,-18.05312 -2.30128,-18.63348 -1.42762,-0.4723 -2.59567,0.1995 -2.59567,1.49307 0,1.29348 -2.02255,2.35179 -4.4945699,2.35179 -5.05478,0 -30.0594701,16.04424 -34.4536401,22.10715 -7.42142,10.23976 -9.94501,1.57211 -4.97107,-17.07394 2.1717,-8.14123 5.63007,-23.59432 7.68528,-34.34023 2.05521,-10.7459 4.58336,-22.46871 5.61812,-26.05067 1.03473,-3.58197 2.99661,-13.35098 4.3597,-21.7089 4.5840301,-28.107341 13.08520014,-72.244741 14.7390401,-76.523871 0.57683,-1.49249 -0.53295,-2.71361 -2.46614996,-2.71361 -6.09765004,0 -3.80779004,-3.93296 3.17627996,-5.45543 6.19207,-1.34981 6.57813,-1.96995 5.17518,-8.31333 -0.83381,-3.77008 -3.99394,-11.8701904 -7.02252,-18.00024043 -3.02857,-6.13002997 -4.93229,-12.63066957 -4.23048,-14.44585957 0.70181,-1.81517 9.27076,-8.03403 19.0420999,-13.81969 l 17.76608,-10.51938 -1.71701,-7.59811 c -3.44794,-15.25786 -2.16492,-27.48809 3.51297,-33.48663 15.40154,-16.271361 37.16059,5.20879 34.82324,34.37689 l -0.79551,9.92726 15.717,5.24479 c 14.737333,4.91786 16.299403,5.04564 25.060543,2.04979 5.13895,-1.75725 10.86831,-5.27511 12.73191,-7.81746 1.86361,-2.54237 3.8805,-5.2747 4.482,-6.0718 0.6015,-0.79713 5.90821,-2.15396 11.79271,-3.01517 l 10.69907,-1.56582 -1.45281,7.23447 c -0.79903,3.97895 -6.07328,14.07277 -11.72055,22.43069 -5.64727,8.3579296 -10.00221,16.08360957 -9.67764,17.16817957 0.32457,1.08458003 -0.22546,2.54993003 -1.22229,3.25634003 -3.2316,2.29007 -16.46966,19.9117704 -15.60396,20.7710104 0.46208,0.4586 8.91777,1.04574 18.79045,1.30477 24.48895,0.64247 30.63741,-5.04337 19.98635,-18.4825704 -5.97746,-7.54217003 -3.24048,-10.39728 9.11023,-9.50346 11.33662,0.82043997 13.08636,4.2138 5.5336,10.73164 -6.69253,5.7754604 -7.12793,10.7112604 -1.39881,15.8571804 3.72878,3.34923 8.45479,3.70315 41.01147,3.07129 20.23837,-0.3928 37.96114,0.026 39.38397,0.93064 1.42282,0.90465 3.68431,7.24497 5.02555,14.08959 4.21097,21.48938 13.40506,64.042171 16.52581,76.486011 1.64691,6.56694 5.53963,24.5522 8.65047,39.96721 3.11085,15.41504 7.33162,30.84253 9.37951,34.28333 3.26624,5.4879 3.32311,6.50631 0.46307,8.29458 -2.26784,1.418 -4.04595,0.99672 -5.841,-1.3839 -3.36047,-4.45669 -41.92164,-18.33184 -43.57372,-15.67878 -0.69284,1.11265 -0.92642,8.4638 -0.51908,16.33591 0.7928,15.32162 -2.13863,20.32619 -10.12454,17.28466 -3.3622,-1.28052 -3.62445,-3.46484 -2.25692,-18.79804 1.7585,-19.71665 3.87362,-17.93997 -20.66117,-17.3552 -9.16721,0.2185 -14.90453,1.39578 -16.40459,3.36616 -3.90258,5.12621 -23.95142,18.34878 -27.8215,18.34878 -5.68461,0 -10.57545,-2.38245 -10.57545,-5.15155 0,-1.38387 -5.16745,-5.91964 -11.48321,-10.07946 l -11.48322,-7.56334 -44.731053,0.61628 c -24.60207,0.33894 -45.0248,0.90784 -45.38384,1.26419 -0.35904,0.35635 -0.95405,8.20733 -1.32223,17.44662 -0.46668,11.7108 -1.62668,17.39979 -3.82993,18.7833 -7.27471,4.56807 -8.40599,2.37371 -8.10629,-15.72365 z m -25.9276999,-12.6229 c 7.07965004,-4.77311 13.58775,-8.67839 14.46244,-8.67839 2.6449499,0 4.2722799,-28.80767 4.5374199,-80.32293 0.2571,-49.950351 0.93581,-58.614021 4.59189,-58.614021 1.27356,0 1.94674,19.2465 1.72742,49.38774 -0.19773,27.163261 0.21676,50.853101 0.92076,52.644081 1.64004,4.17204 0.62935,18.80866 -1.44069,20.86316 -0.86967,0.86315 -1.58121,3.48472 -1.58121,5.8257 0,4.15278 1.18417,4.21374 48.66695,2.50585 50.039843,-1.79984 53.826083,-1.79326 126.470073,0.21983 l 42.80664,1.18624 -0.11134,-59.6658 c -0.10236,-54.910171 0.64899,-65.251551 4.46601,-61.463131 0.76078,0.75508 1.73685,28.94678 2.16906,62.648261 0.43218,33.70146 1.53223,61.93701 2.4445,62.74566 2.48335,2.20124 29.61468,10.83615 30.69106,9.76786 0.51252,-0.50871 -0.0617,-4.16531 -1.27597,-8.12577 -2.28439,-7.45054 -4.47511,-17.13056 -21.28152,-94.036441 -5.47942,-25.07378 -10.42452,-47.1419 -10.9891,-49.04027 -0.89364,-3.00478 -9.30394,-3.65771 -64.96815,-5.04385 -35.16785,-0.87574 -66.40228,-1.65906 -69.40979,-1.74073 -3.00751,-0.0816 -25.825593,-0.0109 -50.706823,0.15935 -41.4406,0.28197 -45.3432699,0.63498 -46.4848599,4.20488 -0.68543,2.14338 -2.65907,13.13351 -4.38586,24.42251 -1.72682,11.289 -4.10698996,24.92149 -5.28925996,30.29444 -1.18229004,5.37296 -4.29304004,21.980261 -6.91278004,36.905131 -2.6197501,14.92487 -7.1271901,36.80644 -10.0165101,48.6257 -2.88933,11.81926 -5.25334,21.83249 -5.25334,22.25162 0,2.14115 4.48315,-0.0588 16.1529801,-7.92668 z m 234.6909329,3.93991 c -0.69822,-1.73179 -1.21652,-1.2174 -1.32147,1.31158 -0.0949,2.28847 0.42197,3.57066 1.1488,2.8493 0.72682,-0.72137 0.80451,-2.59378 0.17258,-4.16088 z m -55.22413,-12.39084 c 1.51907,-2.43949 -4.94554,-5.05919 -7.94472,-3.21947 -1.39478,0.85555 -1.11744,2.05939 0.7442,3.23013 3.82201,2.40361 5.69889,2.40083 7.20052,-0.0109 z M 95.026217,21.698499 c 0,-2.38798 -0.98428,-4.34178 -2.18728,-4.34178 -1.203,0 -2.82741,-0.24423 -3.60977,-0.54273 -0.78237,-0.29849 -1.76048,1.65531 -2.17357,4.34178 -0.56604,3.68138 0.32308,4.88451 3.6098,4.88451 2.90263,0 4.36082,-1.45181 4.36082,-4.34178 z M 87.668997,5.1207986 c -3.17155,-3.14779 -5.76645,-7.05539 -5.76645,-8.68356 0,-1.62817 -0.98428,-2.96031 -2.18728,-2.96031 -1.203,0 -2.18728,-0.99631 -2.18728,-2.21403 0,-1.21771 -2.34131,-5.8951096 -5.2029,-10.3941996 -4.85679,-7.63602 -5.80257,-8.12342 -14.21731,-7.32697 -4.95793,0.46928 -9.01441,1.72751 -9.01441,2.79611 0,1.06858 0.81218,1.94286 1.80483,1.94286 0.99265,0 5.66796,5.35189 10.38958,11.8930696 9.07561,12.57312 11.22832,13.99025 13.26195,8.73038 1.61344,-4.17306 5.16554,-4.23121 5.16554,-0.0847 0,3.45345 8.30203,12.0244704 11.64711,12.0244704 1.1402,0 -0.52182,-2.5754604 -3.69338,-5.7232504 z m -21.0774,0.7477 c 0,-1.54255 -4.2125,-7.42369 -9.36114,-13.06917 -7.36693,-8.0778596 -9.9297,-9.7002096 -12.03003,-7.6156096 -4.78957,4.75368 -2.60859,9.2609296 7.83945,16.2011696 11.72956,7.79154 13.55172,8.39442 13.55172,4.48361 z m 13.12367,0.63377 c 0,-1.19399 -1.04237,-2.17089 -2.31637,-2.17089 -1.274,0 -1.70805,0.9769 -0.96455,2.17089 0.7435,1.19399 1.78587,2.17089 2.31637,2.17089 0.53051,0 0.96455,-0.9769 0.96455,-2.17089 z m 80.382183,-3.43754 c -2.08436,-2.06877003 -6.26325,1.28213 -4.70986,3.7767 0.92329,1.48271 2.14672,1.44527 3.71758,-0.11376 1.28778,-1.27813 1.73432,-2.92642 0.99228,-3.66288 z m -51.76888,-9.98705 c 5.91674,-6.1895296 10.75771,-12.5393896 10.75771,-14.1107796 0,-3.83265 -7.55547,-3.644 -10.82862,0.27038 -1.43836,1.7201 -5.15255,3.42968 -8.25381,3.79906 -3.101253,0.36937 -7.558883,3.23608 -9.905833,6.37043 -3.46997,4.6341496 -3.80248,6.5606696 -1.77981,10.31172957 3.82491,7.09340003 8.30166,5.60769003 20.010363,-6.64081997 z m 23.51344,-9.9124796 c 7.87274,-12.20791 12.02174,-22.25162 9.19202,-22.25162 -1.10224,0 -2.65385,1.0435 -3.44803,2.31888 -0.7942,1.2754 -2.74886,1.82192 -4.34374,1.21448 -3.69529,-1.40739 -5.91392,1.57416 -10.65952,14.32505 -3.60912,9.69726 -3.34378,14.7049396 0.77917,14.7049396 1.00661,0 4.82264,-4.6402796 8.4801,-10.3117296 z m -48.652473,-2.1599 c -2.38938,-2.37148 -4.02783,1.39992 -2.31234,5.32261 1.62663,3.7195296 1.74455,3.7161496 2.65085,-0.0762 0.52166,-2.18294 0.36934,-4.54378 -0.33851,-5.24633 z m -19.08853,-17.0416 c 3.1055,-6.76477 1.07424,-25.76327 -3.12433,-29.22165 -1.58079,-1.3021 -2.40612,-3.57804 -1.83406,-5.05763 0.57204,-1.4796 -1.44544,-4.01042 -4.48333,-5.62406 -4.84438,-2.5732 -6.06383,-2.44851 -9.91922,1.01445 -5.65855,5.08253 -5.57651,7.6172 0.24655,7.6172 3.79344,0 4.16419,0.5719 2.02737,3.1273 -1.43825,1.72002 -4.01945,2.59239 -5.73601,1.93862 -2.42011,-0.92171 -3.121,1.01995 -3.121,8.64605 0,18.6525 19.41109,31.79053 25.94403,17.55972 z m -10.26389,-9.91239 c 0.39845,-2.7927 2.20086,-5.07763 4.00536,-5.07763 4.74362,0 4.09017,8.46943 -0.72444,9.38969 -3.10607,0.59369 -3.8427,-0.37446 -3.28092,-4.31206 z M 1160.2309,212.99 c 0,-1.05473 -1.7952,-2.38364 -3.9894,-2.95313 -3.4326,-0.89093 -3.8593,-2.81992 -3.057,-13.82125 l 0.9325,-12.78583 -34.6736,0.42878 -34.6736,0.42877 -7.3086,10.42568 c -8.9562,12.77607 -14.6037,15.37845 -20.9242,9.64194 -2.517,-2.28443 -8.5135,-6.11362 -13.3255,-8.50928 -4.812,-2.39567 -10.6241,-6.41353 -12.9159,-8.92855 -3.0194,-3.31364 -6.7836,-4.57278 -13.6705,-4.57278 l -9.5037,0 0,15.19623 c 0,11.40058 -0.7465,15.19623 -2.9889,15.19623 -2.3526,0 -2.7507,-3.30381 -1.8701,-15.51889 0.8172,-11.33613 0.4437,-15.10484 -1.3857,-13.98268 -1.38453,0.84929 -2.50442,6.81798 -2.50442,13.34802 0,7.33348 -0.93711,11.81177 -2.47173,11.81177 -1.63565,0 -2.09646,-3.30449 -1.36233,-9.76901 0.84513,-7.44174 0.38147,-9.769 -1.94628,-9.769 -4.78953,0 -20.01279,10.29755 -22.76286,15.3976 -4.02089,7.45679 -7.17191,1.86243 -4.54319,-8.06607 2.28894,-8.64522 5.57824,-37.6888 7.96027,-70.28734 0.74162,-10.14891 2.21141,-23.82552 3.26622,-30.392461 1.05479,-6.56694 2.43606,-35.45719 3.06943,-64.20057 0.90842,-41.2242404 0.54164,-53.14391 -1.73683,-56.44314 -4.79154,-6.93814 -6.36802,-34.63231 -2.40445,-42.23957 1.84722,-3.54536 4.34848,-6.44613 5.55833,-6.44613 2.43726,0 2.91792,1.11267 6.55355,15.17024 l 2.51976,9.743 2.87877,-6.48666 2.87876,-6.48668 0.45106,7.05539 c 0.24808,3.88046 0.69713,8.03229 0.99788,9.22628 0.30075,1.19399 0.70116,3.88047 0.88979,5.96995 0.32665,3.61815 0.48135,3.61815 3.24867,0 1.6211,-2.11962 5.7804,-3.79906 9.4086,-3.79906 3.5767,0 7.1111,-0.60355 7.8543,-1.34122 0.7433,-0.73767 -0.5326,-6.26243 -2.8353,-12.27725 -2.3027,-6.01482 -3.5204,-12.00535 -2.7061,-13.31229 0.8144,-1.30694 1.5162,-6.75852 1.5595,-12.11463 0.07,-8.63812 0.8201,-10.094657 6.6406,-12.891849 3.609,-1.734432 9.8855,-3.164723 13.9476,-3.178421 15.5508,-0.05254 25.5813,21.37454 18.9076,40.39012 -4.6592,13.27591 -4.312,15.12644 2.6881,14.32701 5.0881,-0.58106 6.3643,-2.12433 8.2819,-10.01503 2.4099,-9.91639 5.658,-10.54684 4.1166,-0.79902 l -0.9149,5.78535 3.2032,-5.42722 c 1.7618,-2.98497 3.2381,-7.1368 3.2807,-9.22628 0.043,-2.08948 1.0805,-3.79906 2.3065,-3.79906 2.9644,0 0.7444,9.10951 -5.7512,23.5994 -5.8859,13.1296 -6.1289,14.1153 -3.0084,12.20112 4.6613,-2.85922 11.2793,-19.3979 12.7023,-31.74332 1.6236,-14.08656 5.4652,-17.22929 6.5281,-5.34056 0.3981,4.45314 -1.1542,11.03912 -3.8278,16.24055 -5.5932,10.88142 -5.5854,11.08613 0.424,11.12673 9.7377,0.0658 10.7647,2.41222 9.5827,21.89557 -0.6084,10.0279496 -2.6441,26.0478596 -4.5238,35.59977 -1.8798,9.55192 -3.4179,17.61135 -3.4181,17.90984 -2e-4,0.2985 4.921,0.54273 10.936,0.54273 9.8977,0 10.9318,-0.46392 10.8878,-4.88451 -0.027,-2.68647 -1.9734,-7.32675 -4.3259,-10.31172 -6.1204,-7.76575 -5.5424,-8.68356 5.4681,-8.68356 10.4571,0 12.9637,3.41029 6.4502,8.77556 -2.0652,1.70109 -3.135,5.41511 -2.7341,9.49211 0.6064,6.16782 1.3713,6.74927 9.6701,7.35132 7.1494,0.51865 9.245,-0.15435 10.1414,-3.25633 0.6214,-2.15055 1.839,-5.61967 2.7057,-7.70916 1.1161,-2.69092 0.5505,-3.79905 -1.9392,-3.79905 -2.8646,0 -3.5149,-2.58714 -3.5149,-13.9826604 0,-7.69047003 -0.8919,-14.52975 -1.9819,-15.1984 -1.0901,-0.66866 -1.4536,-3.2211896 -0.8078,-5.6723196 0.7453,-2.82834 -0.4541,-5.96226 -3.2825,-8.57764 -2.4513,-2.26658 -5.5532,-9.19481 -6.8932,-15.39604 -2.5909,-11.9908 -1.3777,-16.60607 2.5393,-9.65929 1.3032,2.31128 6.2761,8.40877 11.0509,13.54998 8.8486,9.52769 8.7247,12.1295 -0.2796,5.86991 -7.3157,-5.08576 -9.0588,-1.31419 -1.9857,4.29663 3.3083,2.6243 6.0151,6.44435 6.0151,8.48896 0,2.20836 1.6914,3.71752 4.1664,3.71752 3.5982,0 4.0064,-1.18422 2.9929,-8.68356 -0.8061,-5.96491 -0.3495,-8.68356 1.4583,-8.68356 1.4475,0 2.3652,2.19802 2.0393,4.8845 -0.3258,2.68648 0.4644,6.8383 1.756,9.22628 1.3513,2.49831 1.6017,6.1852596 0.5897,8.6835596 -2.3299,5.75168997 -2.4184,7.59812 -0.364,7.59812 0.9363,0 6.801,-9.55633 13.0328,-21.2362596 10.1114,-18.95154 11.4244,-22.96393 12.2041,-37.29478 0.8108,-14.90372 0.4798,-16.42082 -4.6031,-21.0961 -6.2947,-5.79004 -7.0515,-5.92169 -14.5494,-2.53099 -4.9449,2.23616 -5.3978,3.40721 -4.1979,10.85445 0.8921,5.53774 0.5145,8.34787 -1.1219,8.34787 -3.1863,0 -3.1904,11.91643 -0.01,18.05256 1.3533,2.60797 4.4777,6.93981 6.9431,9.62629 4.8283,5.26132 3.7573,6.21892 -2.963,2.64926 -6.4353,-3.41824 -10.8577,-13.8336 -12.2764,-28.91243 -1.2368,-13.14539 -1.0149,-13.96358 5.9127,-21.79452 6.7582,-7.63955 7.827,-8.07775 17.5035,-7.1762 12.0286,1.1207 20.6891,8.00314 18.8507,14.98055 -0.6364,2.41518 0.011,6.29196 1.4382,8.61507 2.1282,3.46378 1.9064,4.73143 -1.2325,7.04458 -6.2941,4.63822 -4.4395,9.22583 5.2921,13.09044 5.0159,1.99195 13.9809,7.95942 19.9221,13.26106 5.9412,5.30164 11.68,9.63936 12.7529,9.63936 1.0729,0 1.9507,1.55876 1.9507,3.46394 0,1.90517 1.8302,6.057 4.067,9.2262796 11.9237,16.89395 18.5883,42.7193304 17.326,67.1374804 -0.5105,9.87655 -0.2657,17.20331 0.5442,16.28168 0.8099,-0.92161 5.6126,-17.79453 10.6727,-37.49535 5.0601,-19.70083 9.4625,-36.79659043 9.7831,-37.9905804 0.3205,-1.19399 1.81,-7.78806 3.31,-14.6534996 2.1733,-9.947 3.5844,-12.48262 6.9468,-12.48262 5.8535,0 5.5001,7.41904 -1.328,27.87992957 -10.0692,30.17366043 -11.9504,36.69475043 -11.9504,41.42599043 0,6.11431 -8.049,31.35308 -13.6618,42.83845 -3.207,6.56256 -3.9364,10.71139 -2.6715,15.19623 0.9569,3.393021 1.5376,7.023461 1.2903,8.067611 -0.6199,2.61786 6.4329,62.78069 7.5747,64.61426 0.5068,0.81391 1.4043,6.69644 1.9944,13.07225 0.5901,6.3758 1.6494,14.27966 2.354,17.56413 0.9279,4.32578 0.3027,6.34432 -2.2685,7.32356 -6.5022,2.47645 -6.5513,2.25072 -12.8712,-59.0843 -1.6107,-15.63204 -3.6062,-29.5101 -4.4345,-30.84014 -1.035,-1.66223 -8.493,-2.01459 -23.8555,-1.12704 -12.2923,0.71018 -22.6975,1.58249 -23.1227,1.93847 -0.4251,0.35601 0.7322,8.28006 2.5718,17.60902 5.0472,25.59538 7.6507,55.8201 5.0491,58.61703 -0.2089,0.2246 -7.6705,-1.96181 -16.5813,-4.85867 -8.9108,-2.89686 -16.5091,-4.9617 -16.8851,-4.5885 -0.376,0.37317 -0.821,6.71141 -0.989,14.08495 -0.1679,7.37353 -1.1609,13.40644 -2.2067,13.40644 -1.0457,0 -1.9013,-0.86298 -1.9013,-1.9177 z m -0.7387,-15.99214 c -0.6068,-1.49249 -1.1032,-0.27137 -1.1032,2.71361 0,2.98497 0.4964,4.2061 1.1032,2.71361 0.6068,-1.49249 0.6068,-3.93474 0,-5.42722 z m 0,-10.85445 c -0.6068,-1.49249 -1.1032,-0.27137 -1.1032,2.71361 0,2.98497 0.4964,4.2061 1.1032,2.71361 0.6068,-1.49249 0.6068,-3.93474 0,-5.42722 z m -175.33723,0.54272 c 5.94559,-3.9081 6.11178,-4.31451 1.76955,-4.32748 -2.63575,-0.009 -5.40061,-0.9912 -6.1441,-2.18519 -0.75768,-1.21676 0.95367,-2.17089 3.89372,-2.17089 l 5.24553,0 1.43228,-60.04827 c 0.78775,-33.026551 1.98382,-60.595701 2.65796,-61.264771 2.79685,-2.77592 4.6722,5.1678 3.69556,15.65407 -0.57499,6.1739 -0.9993,13.17906 -0.94289,15.56704 0.0564,2.38798 0.14961,23.468661 0.20713,46.845981 l 0.10455,42.5042 45.44144,0.18995 c 24.9928,0.10442 62.0993,0.40413 82.4588,0.66586 l 37.0174,0.47583 -0.1691,-52.39792 c -0.1494,-46.351881 1.285,-61.666511 4.8698,-51.989621 0.5809,1.56816 1.3122,26.651951 1.625,55.741741 l 0.5688,52.89057 13.1237,4.06334 c 7.218,2.23482 13.6617,4.07771 14.3194,4.0953 0.6577,0.0174 -0.048,-8.02746 -1.5688,-17.87787 -1.5205,-9.85041 -4.3048,-29.63265 -6.1874,-43.96052 -1.8825,-14.32787 -4.3141,-30.446731 -5.4036,-35.819681 -1.0894,-5.37295 -3.1804,-19.14126 -4.6467,-30.59622 l -2.666,-20.82719 -77.8528,-1.56906 c -42.819,-0.86293 -84.7427,-2.35263 -93.1637,-3.31045 -8.42104,-0.9578 -15.99981,-1.13692 -16.84174,-0.39808 -0.84192,0.73886 -2.10031,13.44871 -2.79639,28.2441 -0.6961,14.7954 -1.64221,27.50551 -2.10248,28.24467 -0.46029,0.73917 -2.40939,20.383091 -4.33136,43.653191 -1.92198,23.27009 -3.95344,44.99573 -4.51436,48.2792 -1.23028,7.20171 1.74536,7.64616 10.9008,1.62817 z m 254.47473,-83.74492 c -0.3856,-10.116181 -2.4547,-11.692421 -8.3719,-6.377561 -2.1721,1.95098 -10.8841,3.881291 -22.045,4.884511 -16.4384,1.47757 -18.4536,2.13285 -18.4536,6.00049 0,5.37482 7.9781,6.81247 32.2103,5.80428 l 17.0261,-0.70838 -0.3659,-9.60334 z M 1194.707,64.573569 c 1.2114,-1.49248 2.8588,-5.76328 3.6609,-9.49065 1.196,-5.55767 0.3559,-7.96207 -4.6688,-13.36309 -8.9646,-9.63588 -15.97,-19.28327 -15.97,-21.99285 0,-3.91822 -3.9841,-2.66948 -5.3766,1.68522 -0.7133,2.2305 -3.2403,5.80105 -5.6156,7.93456 -6.3466,5.70054 -5.3313,7.54797 4.1479,7.54797 l 8.4666,0 1.538,13.4926 c 0.8459,7.42092 2.0154,14.25923 2.5989,15.19623 1.6486,2.64746 8.7705,2.00631 11.2187,-1.00999 z M 1048.6556,5.8314186 c -0.013,-14.5559 -0.6374,-30.1483396 -1.387,-34.6498596 -1.3232,-7.94615 -1.5781,-8.14452 -8.749,-6.80934 -4.5558,0.84827 -8.6202,0.3587 -10.6068,-1.27763 -5.5059,-4.53528 -7.6677,6.48822 -7.6677,39.0988896 l 0,30.1427904 12.5768,0.65107 c 6.9173,0.35807 13.3151,0.34917 14.2173,-0.0195 0.9023,-0.36896 1.6297,-12.58022 1.6164,-27.1361204 z m 29.5523,7.1835204 c -1.0582,-1.69946 -2.3164,-1.82557 -3.7746,-0.3783 -1.203,1.19399 -1.473,3.31801 -0.5999,4.72008 1.0582,1.69946 2.3165,1.82556 3.7747,0.3783 1.203,-1.19399 1.4729,-3.31801 0.5998,-4.72008 z m 136.705,3.38446 c 0,-0.52653 -0.9843,-1.56109 -2.1873,-2.29902 -1.203,-0.73793 -2.1873,-0.30714 -2.1873,0.95732 0,1.26446 0.9843,2.29902 2.1873,2.29902 1.203,0 2.1873,-0.43079 2.1873,-0.95732 z m -220.15991,-39.20415 c 1.84458,-5.37295 3.0186,-9.769 2.60895,-9.769 -1.24413,0 -9.92605,15.29887 -9.92605,17.49121 0,5.5287496 4.34063,0.94781 7.3171,-7.72221 z m 73.61221,-0.41492 c 0,-1.56278 -0.879,-2.84141 -1.9533,-2.84141 -2.3084,0 -4.6371,5.38142 -4.539,10.48928 0.06,3.124 0.5107,3.04261 3.2809,-0.59248 1.7663,-2.31768 3.2114,-5.49261 3.2114,-7.05539 z m -77.76217,-6.96482 c 2.74199,-5.26267 2.79586,-6.69268 0.32879,-8.72481 -1.62288,-1.33679 -4.20275,-7.05222 -5.73303,-12.70098 -4.53635,-16.74486 -7.21649,-16.4778 -5.86053,0.58396 1.13082,14.22889 4.40979,27.13613 6.89369,27.13613 0.60038,0 2.56736,-2.83245 4.37108,-6.2943 z m 73.38757,-6.98727 c 0,-1.19399 -0.9842,-1.56714 -2.1872,-0.82922 -1.203,0.73793 -2.1873,2.31858 -2.1873,3.51257 0,1.19399 0.9843,1.56714 2.1873,0.82921 1.203,-0.73792 2.1872,-2.31857 2.1872,-3.51256 z m -21.0924,-5.17019 c 4.6073,-4.57281 8.8359,-25.12504 7.0803,-34.41282 -2.5123,-13.29179 -13.6063,-19.708271 -24.9733,-14.44395 -5.4981,2.54626 -5.588,2.81265 -1.4792,4.38429 3.8383,1.46817 3.9317,1.85333 0.7623,3.14193 -1.9867,0.80774 -4.1197,3.39498 -4.7401,5.74942 -0.9041,3.43155 -0.296,4.01875 3.0654,2.95988 4.8585,-1.53048 5.8302,2.82626 1.0375,4.65163 -4.9724,1.89378 -1.968,22.58108 3.9761,27.37781 5.7548,4.64406 10.984,4.84669 15.271,0.59181 z m -15.3003,-8.68437 c -1.9631,-5.07734 0.8084,-9.769 5.7708,-9.769 5.565,0 7.9859,5.45032 4.3515,9.79664 -3.4732,4.15365 -8.511,4.13989 -10.1223,-0.0276 z m 6.8645,-3.25633 c 0.7435,-1.19399 0.3094,-2.17089 -0.9646,-2.17089 -1.274,0 -2.3163,0.9769 -2.3163,2.17089 0,1.19399 0.434,2.17089 0.9645,2.17089 0.5305,0 1.5729,-0.9769 2.3164,-2.17089 z m 6.5618,-19.53801 c 0.7435,-1.19399 1.7859,-2.17089 2.3164,-2.17089 0.5305,0 0.9645,0.9769 0.9645,2.17089 0,1.19399 -1.0423,2.17089 -2.3163,2.17089 -1.274,0 -1.7081,-0.9769 -0.9646,-2.17089 z m 109.1103,31.60471 c -1.702,-4.40218 -0.2201,-10.46493 2.8021,-11.46358 1.4017,-0.46316 3.1465,1.02783 3.8774,3.31334 2.5296,7.9104 -3.7906,15.62222 -6.6795,8.15024 z m 5.7218,-23.87847 c 0,-1.86145 0.9843,-3.38446 2.1873,-3.38446 1.203,0 2.1873,0.91924 2.1873,2.04276 0,1.12353 -0.9843,2.64654 -2.1873,3.38447 -1.203,0.73792 -2.1873,-0.18127 -2.1873,-2.04277 z m 1.0937,-7.72624 c 0.7435,-1.19399 1.7858,-2.17089 2.3163,-2.17089 0.5306,0 0.9646,0.9769 0.9646,2.17089 0,1.19399 -1.0424,2.17089 -2.3164,2.17089 -1.274,0 -1.708,-0.9769 -0.9645,-2.17089 z"
       style="fill:#000000" />
  </g>
</svg>
